<svg width="812" height="250" viewBox="0 0 812 250" fill="none" xmlns="http://www.w3.org/2000/svg">
<g clip-path="url(#clip0_1_2)">
<rect width="812" height="250" fill="#EBB4FF"/>
<path d="M64.375 89.625C61.375 89.625 58.9062 89.7812 56.9688 90.0938C55.0938 90.4062 53.5312 91.0625 52.2812 92.0625C51.0938 93.0625 50.125 94.4688 49.375 96.2812C48.6875 98.0312 48.0312 100.375 47.4062 103.312H44.7812L45.4375 85.125H105.812L106.469 103.312H103.844C103.219 100.375 102.531 98.0312 101.781 96.2812C101.094 94.4688 100.156 93.0625 98.9688 92.0625C97.7812 91.0625 96.2188 90.4062 94.2812 90.0938C92.3438 89.7812 89.8438 89.625 86.7812 89.625H81.0625V144.469C81.0625 146.406 81.1875 147.969 81.4375 149.156C81.6875 150.344 82.1562 151.281 82.8438 151.969C83.5938 152.656 84.625 153.156 85.9375 153.469C87.3125 153.719 89.0938 153.906 91.2812 154.031V156H60.1562V154.031C62.3438 153.906 64.0938 153.719 65.4062 153.469C66.7188 153.156 67.7188 152.625 68.4062 151.875C69.1562 151.062 69.625 149.969 69.8125 148.594C70.0625 147.219 70.1875 145.406 70.1875 143.156V89.625H64.375ZM130.405 145.125C130.405 146.938 130.499 148.438 130.686 149.625C130.874 150.75 131.217 151.656 131.717 152.344C132.217 152.969 132.936 153.438 133.874 153.75C134.874 154.062 136.155 154.312 137.717 154.5V156H114.561V154.5C116.124 154.25 117.342 153.969 118.217 153.656C119.155 153.344 119.842 152.875 120.28 152.25C120.78 151.562 121.092 150.688 121.217 149.625C121.342 148.5 121.405 147 121.405 145.125V94.6875C121.405 93.5625 121.342 92.6562 121.217 91.9688C121.092 91.2188 120.811 90.6562 120.374 90.2812C119.999 89.8438 119.436 89.5625 118.686 89.4375C117.999 89.3125 117.092 89.25 115.967 89.25C115.342 89.25 114.905 89.2812 114.655 89.3438V87.5625L117.561 86.8125C119.061 86.3125 120.374 85.9062 121.499 85.5938C122.624 85.2188 123.655 84.9062 124.592 84.6562C125.53 84.3438 126.405 84.0625 127.217 83.8125C128.03 83.5 128.905 83.1875 129.842 82.875L130.405 83.25V115.875C132.905 112.562 135.342 110.219 137.717 108.844C140.155 107.469 142.936 106.781 146.061 106.781C150.561 106.781 153.874 108.219 155.999 111.094C158.124 113.969 159.186 118.219 159.186 123.844V145.125C159.186 146.938 159.249 148.406 159.374 149.531C159.499 150.594 159.78 151.469 160.217 152.156C160.717 152.781 161.405 153.281 162.28 153.656C163.155 153.969 164.311 154.25 165.749 154.5V156H143.061V154.5C144.624 154.312 145.874 154.062 146.811 153.75C147.749 153.438 148.467 152.969 148.967 152.344C149.53 151.656 149.874 150.75 149.999 149.625C150.186 148.438 150.28 146.938 150.28 145.125V124.031C150.28 116.469 147.655 112.688 142.405 112.688C140.217 112.688 138.217 113.188 136.405 114.188C134.655 115.125 132.655 116.844 130.405 119.344V145.125ZM217.81 139.219C215.56 145.094 212.497 149.531 208.622 152.531C204.81 155.531 200.31 157.031 195.122 157.031C192.06 157.031 189.279 156.469 186.779 155.344C184.341 154.219 182.247 152.625 180.497 150.562C178.747 148.5 177.404 146 176.466 143.062C175.529 140.125 175.06 136.812 175.06 133.125C175.06 129.188 175.591 125.594 176.654 122.344C177.779 119.094 179.31 116.312 181.247 114C183.247 111.625 185.622 109.781 188.372 108.469C191.122 107.156 194.154 106.5 197.466 106.5C200.279 106.5 202.841 107.031 205.154 108.094C207.529 109.156 209.529 110.656 211.154 112.594C211.841 113.469 212.404 114.344 212.841 115.219C213.341 116.094 213.747 117.062 214.06 118.125C214.435 119.188 214.747 120.375 214.997 121.688C215.247 123 215.497 124.5 215.747 126.188H182.841C182.966 129.625 183.247 132.469 183.685 134.719C184.185 136.906 184.966 139.031 186.029 141.094C189.091 146.844 193.591 149.719 199.529 149.719C202.966 149.719 205.935 148.875 208.435 147.188C210.997 145.5 213.56 142.625 216.122 138.562L217.81 139.219ZM204.872 122.625C204.185 118 203.06 114.812 201.497 113.062C199.997 111.25 197.622 110.344 194.372 110.344C191.06 110.344 188.466 111.312 186.591 113.25C184.779 115.188 183.591 118.312 183.029 122.625H204.872ZM313.495 117.656V96.8438C313.495 94.9062 313.37 93.375 313.12 92.25C312.932 91.0625 312.495 90.125 311.807 89.4375C311.182 88.75 310.245 88.2812 308.995 88.0312C307.745 87.7188 306.089 87.4688 304.026 87.2812V85.125H333.745V87.2812C331.682 87.4688 330.026 87.7188 328.776 88.0312C327.526 88.2812 326.557 88.75 325.87 89.4375C325.245 90.125 324.839 91.0625 324.651 92.25C324.464 93.375 324.37 94.9062 324.37 96.8438V144.469C324.37 146.344 324.464 147.875 324.651 149.062C324.901 150.188 325.37 151.094 326.057 151.781C326.745 152.469 327.682 152.969 328.87 153.281C330.12 153.594 331.745 153.844 333.745 154.031V156H304.026V154.031C306.089 153.906 307.745 153.719 308.995 153.469C310.245 153.156 311.182 152.625 311.807 151.875C312.495 151.062 312.932 149.969 313.12 148.594C313.37 147.219 313.495 145.406 313.495 143.156V122.344H280.964V144.469C280.964 146.344 281.057 147.875 281.245 149.062C281.495 150.188 281.964 151.094 282.651 151.781C283.339 152.469 284.307 152.969 285.557 153.281C286.807 153.594 288.432 153.844 290.432 154.031V156H260.62V154.031C262.745 153.906 264.432 153.719 265.682 153.469C266.932 153.156 267.87 152.625 268.495 151.875C269.182 151.062 269.62 149.969 269.807 148.594C269.995 147.219 270.089 145.406 270.089 143.156V96.8438C270.089 94.9062 269.964 93.375 269.714 92.25C269.526 91.0625 269.089 90.125 268.401 89.4375C267.776 88.75 266.839 88.2812 265.589 88.0312C264.339 87.7188 262.682 87.4688 260.62 87.2812V85.125H290.432V87.2812C288.37 87.4688 286.714 87.7188 285.464 88.0312C284.214 88.2812 283.245 88.75 282.557 89.4375C281.932 90.125 281.495 91.0625 281.245 92.25C281.057 93.375 280.964 94.9062 280.964 96.8438V117.656H313.495ZM409.679 111.562C412.616 110.75 415.147 110 417.272 109.312C419.46 108.625 421.835 107.781 424.397 106.781L425.241 106.969V115.5C427.054 113.812 428.647 112.406 430.022 111.281C431.397 110.156 432.647 109.281 433.772 108.656C434.96 107.969 436.085 107.5 437.147 107.25C438.272 106.938 439.46 106.781 440.71 106.781C444.647 106.781 447.741 108.188 449.991 111C452.241 113.812 453.366 117.75 453.366 122.812V147.375C453.366 149.938 453.804 151.688 454.679 152.625C455.554 153.562 457.272 154.188 459.835 154.5V156H437.616V154.5C438.929 154.375 440.022 154.156 440.897 153.844C441.772 153.531 442.46 153.031 442.96 152.344C443.522 151.656 443.897 150.75 444.085 149.625C444.272 148.5 444.366 147.094 444.366 145.406V123C444.366 116.125 441.772 112.688 436.585 112.688C435.71 112.688 434.866 112.781 434.054 112.969C433.241 113.156 432.397 113.469 431.522 113.906C430.71 114.344 429.804 114.969 428.804 115.781C427.866 116.594 426.741 117.594 425.429 118.781V148.875C425.429 150.812 425.929 152.188 426.929 153C427.929 153.75 429.804 154.25 432.554 154.5V156H409.866V154.5C411.241 154.375 412.335 154.188 413.147 153.938C414.022 153.625 414.71 153.156 415.21 152.531C415.71 151.906 416.054 151.125 416.241 150.188C416.429 149.188 416.522 147.938 416.522 146.438V119.812C416.522 117.188 416.241 115.406 415.679 114.469C415.116 113.469 414.085 112.969 412.585 112.969C411.46 112.969 410.491 113.125 409.679 113.438V111.562ZM503.177 156.75V149.812C501.365 152.438 499.365 154.312 497.177 155.438C495.052 156.5 492.49 157.031 489.49 157.031C486.49 157.031 483.771 156.5 481.334 155.438C478.896 154.312 476.802 152.75 475.052 150.75C473.365 148.688 472.021 146.25 471.021 143.438C470.084 140.625 469.615 137.5 469.615 134.062C469.615 130.25 470.209 126.688 471.396 123.375C472.584 120.062 474.177 117.156 476.177 114.656C478.177 112.156 480.521 110.188 483.209 108.75C485.959 107.312 488.865 106.594 491.927 106.594C494.115 106.594 496.021 106.938 497.646 107.625C499.271 108.25 501.115 109.438 503.177 111.188V94.6875C503.177 92.5 502.834 91.0312 502.146 90.2812C501.521 89.5312 500.209 89.1562 498.209 89.1562C497.771 89.1562 497.365 89.1875 496.99 89.25C496.677 89.25 496.302 89.2812 495.865 89.3438V87.4688C497.552 87.0312 499.084 86.6562 500.459 86.3438C501.834 85.9688 503.115 85.625 504.302 85.3125C505.552 84.9375 506.74 84.5625 507.865 84.1875C509.052 83.8125 510.302 83.375 511.615 82.875L512.177 83.1562V143.812C512.177 146.312 512.459 147.969 513.021 148.781C513.646 149.531 514.927 149.906 516.865 149.906C517.177 149.906 517.552 149.906 517.99 149.906C518.49 149.844 518.959 149.812 519.396 149.812V151.5L503.646 157.031L503.177 156.75ZM503.177 120.281C503.177 118.906 502.865 117.594 502.24 116.344C501.677 115.031 500.896 113.875 499.896 112.875C498.896 111.875 497.709 111.094 496.334 110.531C495.021 109.906 493.646 109.594 492.209 109.594C490.209 109.594 488.365 110.094 486.677 111.094C485.052 112.031 483.646 113.406 482.459 115.219C481.334 116.969 480.459 119.094 479.834 121.594C479.209 124.031 478.896 126.75 478.896 129.75C478.896 133.062 479.24 136.062 479.927 138.75C480.615 141.438 481.584 143.719 482.834 145.594C484.146 147.469 485.709 148.938 487.521 150C489.334 151 491.365 151.5 493.615 151.5C496.99 151.5 499.615 150.375 501.49 148.125C502.615 146.875 503.177 145.875 503.177 145.125V120.281ZM527.582 111.562C529.082 111.188 530.426 110.812 531.614 110.438C532.864 110.062 534.082 109.688 535.27 109.312C536.457 108.938 537.614 108.562 538.739 108.188C539.926 107.75 541.207 107.281 542.582 106.781L543.332 106.969V115.031C545.582 113.344 547.489 111.969 549.051 110.906C550.614 109.781 551.989 108.938 553.176 108.375C554.426 107.75 555.551 107.344 556.551 107.156C557.551 106.906 558.645 106.781 559.832 106.781C565.645 106.781 569.426 109.812 571.176 115.875C574.176 112.688 577.051 110.375 579.801 108.938C582.614 107.5 585.582 106.781 588.707 106.781C597.02 106.781 601.176 113.094 601.176 125.719V147.844C601.176 151.906 602.739 154.031 605.864 154.219L608.582 154.5V156H585.145V154.5C586.707 154.312 587.926 154.094 588.801 153.844C589.739 153.531 590.426 153.125 590.864 152.625C591.364 152.062 591.676 151.312 591.801 150.375C591.989 149.438 592.082 148.188 592.082 146.625V124.125C592.082 121.875 591.957 120 591.707 118.5C591.457 117 591.02 115.812 590.395 114.938C589.77 114 588.926 113.344 587.864 112.969C586.864 112.531 585.614 112.312 584.114 112.312C581.614 112.312 579.457 112.844 577.645 113.906C575.832 114.906 574.114 116.562 572.489 118.875V145.875C572.489 147.5 572.582 148.875 572.77 150C573.02 151.062 573.426 151.938 573.989 152.625C574.614 153.25 575.426 153.719 576.426 154.031C577.426 154.281 578.676 154.438 580.176 154.5V156H556.176V154.5C557.676 154.375 558.895 154.188 559.832 153.938C560.832 153.688 561.582 153.281 562.082 152.719C562.645 152.156 563.02 151.406 563.207 150.469C563.395 149.531 563.489 148.312 563.489 146.812V123.562C563.489 116.062 561.176 112.312 556.551 112.312C554.551 112.312 552.457 112.75 550.27 113.625C548.145 114.5 546.457 115.562 545.207 116.812C544.27 117.875 543.801 118.5 543.801 118.688V148.875C543.801 151 544.27 152.438 545.207 153.188C546.207 153.938 548.145 154.375 551.02 154.5V156H527.301V154.5C528.801 154.438 530.02 154.281 530.957 154.031C531.957 153.781 532.739 153.375 533.301 152.812C533.864 152.25 534.239 151.5 534.426 150.562C534.676 149.562 534.801 148.344 534.801 146.906V119.812C534.801 117.188 534.52 115.406 533.957 114.469C533.457 113.469 532.489 112.969 531.051 112.969C530.426 112.969 529.864 113.031 529.364 113.156C528.926 113.219 528.332 113.312 527.582 113.438V111.562ZM653.519 144.75C653.519 147.125 653.737 148.781 654.175 149.719C654.612 150.594 655.456 151.031 656.706 151.031C658.144 151.031 659.706 150.375 661.394 149.062V151.781C659.581 153.781 657.987 155.156 656.612 155.906C655.237 156.656 653.644 157.031 651.831 157.031C649.644 157.031 648.019 156.438 646.956 155.25C645.956 154 645.331 151.938 645.081 149.062C641.831 151.875 638.987 153.906 636.55 155.156C634.112 156.406 631.737 157.031 629.425 157.031C626.05 157.031 623.3 155.969 621.175 153.844C619.112 151.719 618.081 148.969 618.081 145.594C618.081 143.906 618.394 142.219 619.019 140.531C619.706 138.781 620.675 137.375 621.925 136.312C623.05 135.312 624.081 134.469 625.019 133.781C626.019 133.031 627.3 132.281 628.862 131.531C630.425 130.719 632.456 129.812 634.956 128.812C637.456 127.812 640.769 126.469 644.894 124.781V117.938C644.894 115 644.175 112.781 642.737 111.281C641.362 109.781 639.362 109.031 636.737 109.031C634.55 109.031 632.706 109.562 631.206 110.625C629.769 111.625 629.05 112.844 629.05 114.281C629.05 114.844 629.112 115.562 629.237 116.438C629.425 117.312 629.519 118.031 629.519 118.594C629.519 119.844 629.019 120.906 628.019 121.781C627.081 122.656 625.987 123.094 624.737 123.094C623.487 123.094 622.394 122.656 621.456 121.781C620.581 120.844 620.144 119.75 620.144 118.5C620.144 117.125 620.519 115.719 621.269 114.281C622.081 112.844 623.175 111.562 624.55 110.438C625.987 109.188 627.894 108.219 630.269 107.531C632.706 106.844 635.331 106.5 638.144 106.5C641.394 106.5 644.112 107.062 646.3 108.188C648.55 109.25 650.269 110.75 651.456 112.688C652.206 113.938 652.737 115.406 653.05 117.094C653.362 118.719 653.519 120.938 653.519 123.75V144.75ZM644.894 127.406C641.644 128.594 638.862 129.75 636.55 130.875C634.3 131.938 632.456 133.062 631.019 134.25C629.644 135.375 628.644 136.594 628.019 137.906C627.394 139.219 627.081 140.656 627.081 142.219V142.688C627.081 143.812 627.269 144.906 627.644 145.969C628.019 146.969 628.519 147.844 629.144 148.594C629.831 149.344 630.612 149.938 631.487 150.375C632.362 150.812 633.269 151.031 634.206 151.031C635.331 151.031 636.581 150.812 637.956 150.375C639.394 149.875 640.737 149.281 641.987 148.594C643.237 147.906 644.019 147.188 644.331 146.438C644.706 145.688 644.894 144.5 644.894 142.875V127.406ZM703.33 156.75V149.812C701.518 152.438 699.518 154.312 697.33 155.438C695.205 156.5 692.643 157.031 689.643 157.031C686.643 157.031 683.924 156.5 681.486 155.438C679.049 154.312 676.955 152.75 675.205 150.75C673.518 148.688 672.174 146.25 671.174 143.438C670.236 140.625 669.768 137.5 669.768 134.062C669.768 130.25 670.361 126.688 671.549 123.375C672.736 120.062 674.33 117.156 676.33 114.656C678.33 112.156 680.674 110.188 683.361 108.75C686.111 107.312 689.018 106.594 692.08 106.594C694.268 106.594 696.174 106.938 697.799 107.625C699.424 108.25 701.268 109.438 703.33 111.188V94.6875C703.33 92.5 702.986 91.0312 702.299 90.2812C701.674 89.5312 700.361 89.1562 698.361 89.1562C697.924 89.1562 697.518 89.1875 697.143 89.25C696.83 89.25 696.455 89.2812 696.018 89.3438V87.4688C697.705 87.0312 699.236 86.6562 700.611 86.3438C701.986 85.9688 703.268 85.625 704.455 85.3125C705.705 84.9375 706.893 84.5625 708.018 84.1875C709.205 83.8125 710.455 83.375 711.768 82.875L712.33 83.1562V143.812C712.33 146.312 712.611 147.969 713.174 148.781C713.799 149.531 715.08 149.906 717.018 149.906C717.33 149.906 717.705 149.906 718.143 149.906C718.643 149.844 719.111 149.812 719.549 149.812V151.5L703.799 157.031L703.33 156.75ZM703.33 120.281C703.33 118.906 703.018 117.594 702.393 116.344C701.83 115.031 701.049 113.875 700.049 112.875C699.049 111.875 697.861 111.094 696.486 110.531C695.174 109.906 693.799 109.594 692.361 109.594C690.361 109.594 688.518 110.094 686.83 111.094C685.205 112.031 683.799 113.406 682.611 115.219C681.486 116.969 680.611 119.094 679.986 121.594C679.361 124.031 679.049 126.75 679.049 129.75C679.049 133.062 679.393 136.062 680.08 138.75C680.768 141.438 681.736 143.719 682.986 145.594C684.299 147.469 685.861 148.938 687.674 150C689.486 151 691.518 151.5 693.768 151.5C697.143 151.5 699.768 150.375 701.643 148.125C702.768 146.875 703.33 145.875 703.33 145.125V120.281ZM771.141 139.219C768.891 145.094 765.829 149.531 761.954 152.531C758.141 155.531 753.641 157.031 748.454 157.031C745.391 157.031 742.61 156.469 740.11 155.344C737.672 154.219 735.579 152.625 733.829 150.562C732.079 148.5 730.735 146 729.797 143.062C728.86 140.125 728.391 136.812 728.391 133.125C728.391 129.188 728.922 125.594 729.985 122.344C731.11 119.094 732.641 116.312 734.579 114C736.579 111.625 738.954 109.781 741.704 108.469C744.454 107.156 747.485 106.5 750.797 106.5C753.61 106.5 756.172 107.031 758.485 108.094C760.86 109.156 762.86 110.656 764.485 112.594C765.172 113.469 765.735 114.344 766.172 115.219C766.672 116.094 767.079 117.062 767.391 118.125C767.766 119.188 768.079 120.375 768.329 121.688C768.579 123 768.829 124.5 769.079 126.188H736.172C736.297 129.625 736.579 132.469 737.016 134.719C737.516 136.906 738.297 139.031 739.36 141.094C742.422 146.844 746.922 149.719 752.86 149.719C756.297 149.719 759.266 148.875 761.766 147.188C764.329 145.5 766.891 142.625 769.454 138.562L771.141 139.219ZM758.204 122.625C757.516 118 756.391 114.812 754.829 113.062C753.329 111.25 750.954 110.344 747.704 110.344C744.391 110.344 741.797 111.312 739.922 113.25C738.11 115.188 736.922 118.312 736.36 122.625H758.204Z" fill="black"/>
<path d="M362.426 139.75L372 121.095L381.574 139.75H362.426Z" stroke="black"/>
<rect x="357" y="138" width="1" height="8" fill="#D9D9D9"/>
<path d="M106.12 199.576C105.448 199.576 104.76 199.464 104.056 199.24C103.352 199.016 102.704 198.624 102.112 198.064C101.52 197.488 101.04 196.68 100.672 195.64C100.32 194.584 100.144 193.24 100.144 191.608V166.528H97.84V165.4H106.048V166.528H103.768V191.584C103.768 193.936 104.04 195.624 104.584 196.648C105.128 197.672 105.92 198.184 106.96 198.184C107.376 198.184 107.792 198.096 108.208 197.92C108.64 197.744 109.024 197.44 109.36 197.008C109.696 196.576 109.96 195.984 110.152 195.232C110.36 194.464 110.464 193.496 110.464 192.328V166.528H108.424V165.4H113.896V166.528H111.64V192.4C111.64 194.272 111.384 195.736 110.872 196.792C110.376 197.832 109.712 198.56 108.88 198.976C108.048 199.376 107.128 199.576 106.12 199.576ZM140.902 199V197.872H143.086V166.528H140.902V165.4H147.214L154.822 190.84H154.63V166.528H152.422V165.4H157.918V166.528H155.806V199H153.598L144.07 167.704H144.286V197.872H146.686V199H140.902ZM185.497 199V197.872H187.777V166.528H185.497V165.4H193.657V166.528H191.353V197.872H193.657V199H185.497ZM227.71 199.048L222.622 166.528H220.606V165.4H228.454V166.528H226.486L229.894 190.384H229.63L232.894 166.528H230.902V165.4H236.35V166.528H234.142L229.414 199.048H227.71ZM262.938 199V197.872H265.17V166.528H262.938V165.4H276.162V172.336H275.01C275.01 171.04 274.906 169.96 274.698 169.096C274.506 168.232 274.162 167.592 273.666 167.176C273.186 166.744 272.514 166.528 271.65 166.528H268.77V181.6H273.666V179.056H274.77V185.248H273.666V182.752H268.77V197.872H271.578C272.458 197.872 273.138 197.656 273.618 197.224C274.114 196.776 274.466 196.12 274.674 195.256C274.898 194.376 275.01 193.288 275.01 191.992H276.162V199H262.938ZM319.24 199.384C318.2 199.384 317.424 199.104 316.912 198.544C316.4 197.984 316.064 197.232 315.904 196.288C315.744 195.344 315.664 194.296 315.664 193.144C315.664 192.216 315.688 191.28 315.736 190.336C315.8 189.392 315.832 188.528 315.832 187.744C315.832 186.32 315.72 185.216 315.496 184.432C315.272 183.648 314.856 183.096 314.248 182.776C313.64 182.44 312.76 182.272 311.608 182.272H310.24V197.872H312.496V199H304.336V197.872H306.664V166.528H304.336V165.4H313.12C314.4 165.4 315.536 165.672 316.528 166.216C317.536 166.744 318.328 167.584 318.904 168.736C319.48 169.872 319.768 171.36 319.768 173.2C319.768 174.624 319.592 175.856 319.24 176.896C318.888 177.92 318.424 178.776 317.848 179.464C317.272 180.136 316.632 180.656 315.928 181.024C315.224 181.376 314.512 181.592 313.792 181.672C315.376 181.72 316.568 182.04 317.368 182.632C318.168 183.224 318.704 184.08 318.976 185.2C319.264 186.32 319.408 187.696 319.408 189.328C319.408 190.112 319.392 190.904 319.36 191.704C319.328 192.488 319.312 193.248 319.312 193.984C319.312 194.544 319.336 195.136 319.384 195.76C319.432 196.384 319.528 196.92 319.672 197.368C319.816 197.816 320.024 198.04 320.296 198.04C320.44 198.04 320.568 197.968 320.68 197.824C320.792 197.664 320.856 197.488 320.872 197.296H321.928C321.88 197.76 321.728 198.152 321.472 198.472C321.216 198.776 320.888 199 320.488 199.144C320.104 199.304 319.688 199.384 319.24 199.384ZM310.24 181.12H312.112C313.072 181.12 313.84 180.776 314.416 180.088C314.992 179.384 315.408 178.44 315.664 177.256C315.936 176.072 316.072 174.752 316.072 173.296C316.072 171.936 315.968 170.752 315.76 169.744C315.552 168.72 315.176 167.928 314.632 167.368C314.088 166.808 313.32 166.528 312.328 166.528H310.24V181.12ZM355.182 199.648C354.51 199.648 353.934 199.56 353.454 199.384C352.974 199.208 352.558 199 352.206 198.76C351.87 198.52 351.582 198.312 351.342 198.136C351.102 197.96 350.886 197.872 350.694 197.872C350.358 197.872 350.19 198.248 350.19 199H349.182V191.68H350.334C350.35 192.176 350.438 192.728 350.598 193.336C350.758 193.928 350.974 194.528 351.246 195.136C351.534 195.728 351.87 196.272 352.254 196.768C352.654 197.264 353.094 197.672 353.574 197.992C354.07 198.296 354.614 198.448 355.206 198.448C356.054 198.448 356.702 198.224 357.15 197.776C357.614 197.328 357.934 196.728 358.11 195.976C358.286 195.224 358.374 194.376 358.374 193.432C358.374 192.312 358.15 191.184 357.702 190.048C357.27 188.912 356.694 187.776 355.974 186.64C355.254 185.488 354.47 184.352 353.622 183.232C352.422 181.6 351.494 180.144 350.838 178.864C350.198 177.568 349.758 176.376 349.518 175.288C349.278 174.2 349.158 173.144 349.158 172.12C349.158 170.552 349.414 169.232 349.926 168.16C350.438 167.088 351.11 166.272 351.942 165.712C352.79 165.152 353.71 164.872 354.702 164.872C355.502 164.872 356.142 165 356.622 165.256C357.118 165.496 357.51 165.744 357.798 166C358.102 166.256 358.358 166.384 358.566 166.384C358.742 166.384 358.878 166.312 358.974 166.168C359.07 166.024 359.118 165.768 359.118 165.4H360.126V172.648H358.998C358.95 172.008 358.83 171.312 358.638 170.56C358.462 169.792 358.198 169.072 357.846 168.4C357.51 167.712 357.086 167.152 356.574 166.72C356.062 166.272 355.462 166.048 354.774 166.048C353.878 166.048 353.15 166.4 352.59 167.104C352.03 167.792 351.75 168.84 351.75 170.248C351.75 171.16 351.878 172.08 352.134 173.008C352.406 173.92 352.854 174.912 353.478 175.984C354.118 177.056 354.966 178.304 356.022 179.728C356.982 180.96 357.838 182.216 358.59 183.496C359.358 184.776 359.966 186.088 360.414 187.432C360.862 188.776 361.086 190.168 361.086 191.608C361.086 192.952 360.934 194.128 360.63 195.136C360.326 196.128 359.91 196.96 359.382 197.632C358.87 198.304 358.254 198.808 357.534 199.144C356.814 199.48 356.03 199.648 355.182 199.648ZM388.647 199V197.872H390.879V166.528H388.647V165.4H401.871V172.336H400.719C400.719 171.04 400.615 169.96 400.407 169.096C400.215 168.232 399.871 167.592 399.375 167.176C398.895 166.744 398.223 166.528 397.359 166.528H394.479V181.6H399.375V179.056H400.479V185.248H399.375V182.752H394.479V197.872H397.287C398.167 197.872 398.847 197.656 399.327 197.224C399.823 196.776 400.175 196.12 400.383 195.256C400.607 194.376 400.719 193.288 400.719 191.992H401.871V199H388.647ZM462.607 199V197.872H464.767V166.528H462.607V165.4H470.551V166.528H468.343V197.872H470.431C471.199 197.872 471.807 197.648 472.255 197.2C472.719 196.752 473.047 196.096 473.239 195.232C473.431 194.368 473.527 193.288 473.527 191.992H474.679V199H462.607ZM502.691 199V197.872H504.971V166.528H502.691V165.4H510.851V166.528H508.547V197.872H510.851V199H502.691ZM538.591 199V197.872H540.799V166.528H538.687V165.4H545.431L549.319 189.76H548.935L553.399 165.4H559.783V166.528H557.623V197.872H559.903V199H551.887V197.872H554.023V166.696H554.383L548.455 197.992H547.063L541.687 166.312H541.951V197.872H544.207V199H538.591ZM587.497 199V197.872H589.777V166.528H587.497V165.4H595.657V166.528H593.353V197.872H595.657V199H587.497ZM626.71 199V197.872H629.182V166.528H627.526C626.694 166.528 626.054 166.736 625.606 167.152C625.174 167.552 624.878 168.184 624.718 169.048C624.574 169.896 624.502 170.992 624.502 172.336H623.35V165.4H638.566V172.336H637.438C637.438 170.992 637.358 169.896 637.198 169.048C637.038 168.184 636.742 167.552 636.31 167.152C635.878 166.736 635.246 166.528 634.414 166.528H632.758V197.872H635.35V199H626.71ZM665.969 199V197.872H668.201V166.528H665.969V165.4H679.193V172.336H678.041C678.041 171.04 677.937 169.96 677.729 169.096C677.537 168.232 677.193 167.592 676.697 167.176C676.217 166.744 675.545 166.528 674.681 166.528H671.801V181.6H676.697V179.056H677.801V185.248H676.697V182.752H671.801V197.872H674.609C675.489 197.872 676.169 197.656 676.649 197.224C677.145 196.776 677.497 196.12 677.705 195.256C677.929 194.376 678.041 193.288 678.041 191.992H679.193V199H665.969ZM707.247 199V197.872H709.455V166.528H707.247V165.4H714.663C716.183 165.4 717.575 166.008 718.839 167.224C720.103 168.424 721.111 170.248 721.863 172.696C722.631 175.144 723.015 178.224 723.015 181.936C723.015 185.68 722.631 188.824 721.863 191.368C721.095 193.896 720.079 195.8 718.815 197.08C717.551 198.36 716.167 199 714.663 199H707.247ZM713.079 197.872H714.159C715.071 197.872 715.911 197.312 716.679 196.192C717.463 195.056 718.095 193.32 718.575 190.984C719.055 188.632 719.295 185.616 719.295 181.936C719.295 178.688 719.079 175.92 718.647 173.632C718.215 171.328 717.655 169.568 716.967 168.352C716.279 167.136 715.543 166.528 714.759 166.528H713.079V197.872Z" fill="black"/>
<path d="M340.706 151.25L372.208 100.831L403.71 151.25H340.706Z" stroke="black" stroke-width="3"/>
<path d="M352.158 143.5L372 111.881L391.842 143.5H352.158Z" stroke="black" stroke-width="2"/>
</g>
<defs>
<clipPath id="clip0_1_2">
<rect width="812" height="250" fill="white"/>
</clipPath>
</defs>
</svg>
