<svg width="393" height="121" viewBox="0 0 393 121" fill="none" xmlns="http://www.w3.org/2000/svg">
<g clip-path="url(#clip0_6_2)">
<rect width="393" height="121" fill="white"/>
<mask id="mask0_6_2" style="mask-type:luminance" maskUnits="userSpaceOnUse" x="0" y="0" width="393" height="121">
<path d="M393 0H0V121H393V0Z" fill="white"/>
</mask>
<g mask="url(#mask0_6_2)">
<path d="M31.1569 43.3785C29.7049 43.3785 28.51 43.4541 27.5723 43.6054C26.6648 43.7566 25.9086 44.0742 25.3036 44.5582C24.7289 45.0422 24.26 45.7229 23.897 46.6001C23.5643 47.4471 23.2466 48.5815 22.9441 50.003H21.6736L21.9913 41.2005H51.212L51.5299 50.003H50.2595C49.957 48.5815 49.624 47.4471 49.261 46.6001C48.9285 45.7229 48.4745 45.0422 47.8999 44.5582C47.3251 44.0742 46.5689 43.7566 45.6312 43.6054C44.6935 43.4541 43.4835 43.3785 42.0012 43.3785H39.2334V69.923C39.2334 70.8605 39.2939 71.617 39.4149 72.1915C39.5359 72.7665 39.7628 73.22 40.0956 73.553C40.4586 73.8855 40.9577 74.1275 41.5929 74.279C42.2584 74.4 43.1205 74.4905 44.1792 74.551V75.504H29.115V74.551C30.1738 74.4905 31.0208 74.4 31.6559 74.279C32.2912 74.1275 32.7752 73.8705 33.1079 73.5075C33.4709 73.114 33.6978 72.585 33.7885 71.9195C33.9095 71.254 33.97 70.3765 33.97 69.2875V43.3785H31.1569ZM63.1147 70.2405C63.1147 71.118 63.1602 71.844 63.2507 72.4185C63.3417 72.963 63.5077 73.4015 63.7497 73.7345C63.9917 74.037 64.3397 74.264 64.7937 74.415C65.2777 74.566 65.8977 74.687 66.6537 74.778V75.504H55.4464V74.778C56.2029 74.657 56.7924 74.521 57.2159 74.3695C57.6698 74.2185 58.0023 73.9915 58.2143 73.689C58.4563 73.356 58.6073 72.933 58.6678 72.4185C58.7283 71.874 58.7588 71.148 58.7588 70.2405V45.8287C58.7588 45.2842 58.7283 44.8456 58.6678 44.5129C58.6073 44.1499 58.4713 43.8776 58.2598 43.6961C58.0783 43.4844 57.8058 43.3482 57.4428 43.2877C57.1103 43.2272 56.6714 43.197 56.1269 43.197C55.8244 43.197 55.6129 43.2121 55.4919 43.2424V42.3802L56.8984 42.0172C57.6243 41.7752 58.2598 41.5786 58.8043 41.4274C59.3488 41.2459 59.8478 41.0946 60.3013 40.9736C60.7553 40.8224 61.1788 40.6862 61.5718 40.5652C61.9652 40.414 62.3887 40.2627 62.8422 40.1115L63.1147 40.293V56.0835C64.3247 54.48 65.5042 53.346 66.6537 52.6805C67.8336 52.015 69.1796 51.682 70.6921 51.682C72.87 51.682 74.4735 52.378 75.502 53.7695C76.5304 55.161 77.0444 57.218 77.0444 59.9405V70.2405C77.0444 71.118 77.0749 71.8285 77.1354 72.373C77.1959 72.8875 77.3319 73.311 77.5434 73.6435C77.7854 73.946 78.1184 74.188 78.5419 74.3695C78.9654 74.521 79.5249 74.657 80.2209 74.778V75.504H69.2401V74.778C69.9966 74.687 70.6016 74.566 71.0551 74.415C71.509 74.264 71.8565 74.037 72.0985 73.7345C72.371 73.4015 72.5375 72.963 72.598 72.4185C72.6885 71.844 72.734 71.118 72.734 70.2405V60.031C72.734 56.371 71.4635 54.541 68.9226 54.541C67.8636 54.541 66.8957 54.783 66.0187 55.267C65.1717 55.7205 64.2037 56.5525 63.1147 57.7625V70.2405ZM105.418 67.382C104.329 70.2255 102.846 72.373 100.971 73.825C99.126 75.277 96.9481 76.003 94.4371 76.003C92.9551 76.003 91.6092 75.731 90.3992 75.1865C89.2192 74.642 88.2057 73.8705 87.3587 72.872C86.5118 71.874 85.8618 70.664 85.4078 69.242C84.9543 67.8205 84.7273 66.217 84.7273 64.4325C84.7273 62.527 84.9843 60.7875 85.4988 59.2145C86.0433 57.6415 86.7843 56.295 87.7217 55.176C88.6897 54.0265 89.8392 53.134 91.1702 52.499C92.5011 51.8635 93.9686 51.546 95.5716 51.546C96.9331 51.546 98.173 51.803 99.2925 52.3175C100.442 52.8315 101.41 53.5575 102.196 54.4955C102.529 54.919 102.801 55.3425 103.013 55.766C103.255 56.1895 103.451 56.658 103.603 57.1725C103.784 57.687 103.935 58.2615 104.056 58.897C104.177 59.532 104.298 60.258 104.419 61.075H88.4932C88.5537 62.7385 88.6897 64.115 88.9017 65.204C89.1437 66.2625 89.5217 67.291 90.0362 68.2895C91.5182 71.0725 93.6961 72.464 96.5701 72.464C98.2335 72.464 99.6705 72.0555 100.88 71.239C102.12 70.422 103.361 69.0305 104.601 67.064L105.418 67.382ZM99.156 59.3505C98.8235 57.112 98.279 55.569 97.5225 54.722C96.7966 53.845 95.6471 53.4065 94.0741 53.4065C92.4711 53.4065 91.2157 53.875 90.3082 54.813C89.4312 55.751 88.8562 57.263 88.5842 59.3505H99.156ZM151.728 56.9455V46.8724C151.728 45.9346 151.668 45.1935 151.547 44.649C151.456 44.0742 151.245 43.6205 150.912 43.2877C150.609 42.955 150.156 42.7281 149.551 42.6071C148.946 42.4559 148.144 42.3349 147.146 42.2441V41.2005H161.529V42.2441C160.531 42.3349 159.729 42.4559 159.124 42.6071C158.519 42.7281 158.05 42.955 157.718 43.2877C157.415 43.6205 157.219 44.0742 157.128 44.649C157.037 45.1935 156.992 45.9346 156.992 46.8724V69.923C156.992 70.8305 157.037 71.5715 157.128 72.146C157.249 72.691 157.476 73.1295 157.808 73.462C158.141 73.795 158.595 74.037 159.17 74.188C159.775 74.3395 160.561 74.4605 161.529 74.551V75.504H147.146V74.551C148.144 74.4905 148.946 74.4 149.551 74.279C150.156 74.1275 150.609 73.8705 150.912 73.5075C151.245 73.114 151.456 72.585 151.547 71.9195C151.668 71.254 151.728 70.3765 151.728 69.2875V59.2145H135.984V69.923C135.984 70.8305 136.029 71.5715 136.12 72.146C136.241 72.691 136.468 73.1295 136.8 73.462C137.133 73.795 137.602 74.037 138.207 74.188C138.812 74.3395 139.598 74.4605 140.566 74.551V75.504H126.137V74.551C127.166 74.4905 127.982 74.4 128.587 74.279C129.192 74.1275 129.646 73.8705 129.949 73.5075C130.281 73.114 130.493 72.585 130.584 71.9195C130.675 71.254 130.72 70.3765 130.72 69.2875V46.8724C130.72 45.9346 130.66 45.1935 130.539 44.649C130.448 44.0742 130.236 43.6205 129.903 43.2877C129.601 42.955 129.147 42.7281 128.542 42.6071C127.937 42.4559 127.135 42.3349 126.137 42.2441V41.2005H140.566V42.2441C139.568 42.3349 138.767 42.4559 138.162 42.6071C137.557 42.7281 137.088 42.955 136.755 43.2877C136.452 43.6205 136.241 44.0742 136.12 44.649C136.029 45.1935 135.984 45.9346 135.984 46.8724V56.9455H151.728ZM198.281 53.996C199.702 53.603 200.927 53.24 201.956 52.907C203.015 52.5745 204.164 52.166 205.404 51.682L205.812 51.773V55.902C206.69 55.085 207.461 54.4045 208.126 53.86C208.792 53.3155 209.397 52.892 209.941 52.5895C210.516 52.257 211.061 52.03 211.575 51.909C212.119 51.758 212.694 51.682 213.299 51.682C215.205 51.682 216.702 52.363 217.791 53.724C218.88 55.085 219.425 56.991 219.425 59.441V71.3295C219.425 72.57 219.637 73.417 220.06 73.8705C220.484 74.324 221.315 74.627 222.556 74.778V75.504H211.802V74.778C212.437 74.7175 212.966 74.6115 213.39 74.4605C213.813 74.309 214.146 74.067 214.388 73.7345C214.66 73.4015 214.842 72.963 214.933 72.4185C215.023 71.874 215.069 71.1935 215.069 70.3765V59.532C215.069 56.2045 213.813 54.541 211.303 54.541C210.879 54.541 210.471 54.586 210.078 54.677C209.684 54.7675 209.276 54.919 208.852 55.1305C208.459 55.3425 208.021 55.645 207.537 56.038C207.083 56.4315 206.538 56.9155 205.903 57.49V72.0555C205.903 72.993 206.145 73.659 206.629 74.052C207.113 74.415 208.021 74.657 209.352 74.778V75.504H198.371V74.778C199.037 74.7175 199.566 74.627 199.959 74.506C200.383 74.3545 200.716 74.1275 200.958 73.825C201.2 73.5225 201.366 73.1445 201.457 72.691C201.548 72.207 201.593 71.602 201.593 70.876V57.989C201.593 56.719 201.457 55.8565 201.185 55.403C200.912 54.919 200.413 54.677 199.687 54.677C199.143 54.677 198.674 54.7525 198.281 54.904V53.996ZM243.533 75.867V72.509C242.656 73.78 241.688 74.687 240.629 75.232C239.6 75.746 238.36 76.003 236.908 76.003C235.456 76.003 234.14 75.746 232.961 75.232C231.781 74.687 230.767 73.931 229.92 72.963C229.104 71.965 228.454 70.785 227.97 69.424C227.516 68.0625 227.289 66.55 227.289 64.886C227.289 63.041 227.577 61.317 228.151 59.7135C228.726 58.11 229.497 56.7035 230.465 55.4935C231.433 54.2835 232.567 53.331 233.868 52.635C235.199 51.939 236.606 51.5915 238.088 51.5915C239.147 51.5915 240.069 51.758 240.856 52.0905C241.642 52.393 242.535 52.968 243.533 53.815V45.8287C243.533 44.77 243.367 44.0591 243.034 43.6961C242.731 43.3331 242.096 43.1516 241.128 43.1516C240.916 43.1516 240.72 43.1667 240.538 43.197C240.387 43.197 240.205 43.2121 239.994 43.2424V42.3349C240.81 42.1231 241.552 41.9416 242.217 41.7904C242.883 41.6089 243.503 41.4425 244.077 41.2912C244.682 41.1097 245.257 40.9282 245.802 40.7467C246.376 40.5652 246.981 40.3535 247.617 40.1115L247.889 40.2476V69.605C247.889 70.815 248.025 71.617 248.297 72.01C248.6 72.373 249.22 72.5545 250.158 72.5545C250.309 72.5545 250.49 72.5545 250.702 72.5545C250.944 72.5245 251.171 72.509 251.383 72.509V73.326L243.76 76.003L243.533 75.867ZM243.533 58.216C243.533 57.5505 243.382 56.9155 243.079 56.3105C242.807 55.675 242.429 55.1155 241.945 54.6315C241.461 54.1475 240.886 53.7695 240.221 53.497C239.585 53.1945 238.92 53.0435 238.224 53.0435C237.256 53.0435 236.364 53.2855 235.547 53.7695C234.76 54.223 234.08 54.8885 233.505 55.766C232.961 56.613 232.537 57.6415 232.235 58.8515C231.932 60.031 231.781 61.347 231.781 62.799C231.781 64.402 231.947 65.854 232.28 67.155C232.613 68.456 233.082 69.56 233.687 70.4675C234.322 71.375 235.078 72.086 235.955 72.6C236.833 73.084 237.816 73.326 238.905 73.326C240.538 73.326 241.809 72.7815 242.716 71.6925C243.261 71.0875 243.533 70.6035 243.533 70.2405V58.216ZM255.344 53.996C256.07 53.815 256.721 53.633 257.296 53.452C257.901 53.27 258.49 53.089 259.065 52.907C259.64 52.726 260.2 52.544 260.744 52.363C261.319 52.151 261.939 51.924 262.604 51.682L262.967 51.773V55.675C264.056 54.8585 264.979 54.193 265.735 53.6785C266.492 53.134 267.157 52.726 267.732 52.4535C268.337 52.151 268.881 51.9545 269.365 51.8635C269.849 51.7425 270.379 51.682 270.953 51.682C273.767 51.682 275.597 53.149 276.444 56.0835C277.896 54.541 279.287 53.4215 280.618 52.726C281.979 52.03 283.416 51.682 284.928 51.682C288.952 51.682 290.963 54.7375 290.963 60.848V71.5565C290.963 73.5225 291.72 74.551 293.232 74.642L294.548 74.778V75.504H283.204V74.778C283.96 74.687 284.55 74.5815 284.974 74.4605C285.428 74.309 285.76 74.1125 285.972 73.8705C286.214 73.598 286.365 73.235 286.426 72.7815C286.517 72.328 286.562 71.723 286.562 70.9665V60.0765C286.562 58.9875 286.501 58.08 286.38 57.354C286.259 56.628 286.048 56.053 285.745 55.63C285.443 55.176 285.034 54.8585 284.52 54.677C284.036 54.465 283.431 54.359 282.705 54.359C281.495 54.359 280.451 54.6165 279.574 55.1305C278.697 55.6145 277.866 56.416 277.079 57.5355V70.6035C277.079 71.39 277.124 72.0555 277.215 72.6C277.336 73.114 277.533 73.538 277.805 73.8705C278.108 74.173 278.501 74.4 278.985 74.551C279.469 74.672 280.073 74.748 280.799 74.778V75.504H269.184V74.778C269.91 74.7175 270.5 74.627 270.953 74.506C271.437 74.385 271.8 74.188 272.042 73.916C272.315 73.6435 272.496 73.2805 272.587 72.827C272.678 72.373 272.723 71.783 272.723 71.057V59.804C272.723 56.174 271.604 54.359 269.365 54.359C268.397 54.359 267.384 54.571 266.325 54.9945C265.297 55.418 264.48 55.932 263.875 56.537C263.421 57.0515 263.194 57.354 263.194 57.445V72.0555C263.194 73.084 263.421 73.78 263.875 74.143C264.359 74.506 265.297 74.7175 266.688 74.778V75.504H255.208V74.778C255.934 74.748 256.524 74.672 256.978 74.551C257.462 74.43 257.84 74.2335 258.112 73.961C258.385 73.689 258.566 73.326 258.657 72.872C258.778 72.388 258.838 71.7985 258.838 71.1025V57.989C258.838 56.719 258.702 55.8565 258.43 55.403C258.188 54.919 257.719 54.677 257.023 54.677C256.721 54.677 256.449 54.707 256.207 54.7675C255.995 54.798 255.707 54.843 255.344 54.904V53.996ZM316.297 70.059C316.297 71.2085 316.402 72.01 316.614 72.464C316.826 72.8875 317.234 73.099 317.839 73.099C318.535 73.099 319.291 72.7815 320.108 72.146V73.462C319.231 74.43 318.459 75.0955 317.794 75.4585C317.128 75.8215 316.357 76.003 315.48 76.003C314.421 76.003 313.635 75.716 313.12 75.141C312.636 74.536 312.334 73.538 312.213 72.146C310.64 73.5075 309.263 74.4905 308.084 75.0955C306.904 75.7005 305.754 76.003 304.635 76.003C303.002 76.003 301.671 75.489 300.643 74.4605C299.644 73.432 299.145 72.101 299.145 70.4675C299.145 69.6505 299.297 68.834 299.599 68.017C299.932 67.17 300.401 66.4895 301.006 65.975C301.55 65.491 302.049 65.083 302.503 64.75C302.987 64.387 303.607 64.024 304.363 63.661C305.119 63.268 306.102 62.829 307.312 62.345C308.522 61.861 310.126 61.211 312.122 60.394V57.082C312.122 55.66 311.774 54.586 311.078 53.86C310.413 53.134 309.445 52.771 308.174 52.771C307.116 52.771 306.223 53.028 305.497 53.5425C304.802 54.0265 304.454 54.6165 304.454 55.312C304.454 55.5845 304.484 55.932 304.544 56.356C304.635 56.779 304.681 57.127 304.681 57.3995C304.681 58.0045 304.439 58.5185 303.955 58.942C303.501 59.3655 302.972 59.5775 302.367 59.5775C301.762 59.5775 301.233 59.3655 300.779 58.942C300.355 58.4885 300.144 57.959 300.144 57.354C300.144 56.6885 300.325 56.008 300.688 55.312C301.081 54.6165 301.611 53.996 302.276 53.452C302.972 52.847 303.895 52.378 305.044 52.045C306.223 51.7125 307.494 51.546 308.855 51.546C310.428 51.546 311.744 51.818 312.803 52.363C313.892 52.877 314.724 53.603 315.298 54.541C315.661 55.146 315.918 55.8565 316.07 56.6735C316.221 57.46 316.297 58.534 316.297 59.895V70.059ZM312.122 61.6645C310.549 62.2395 309.203 62.799 308.084 63.3435C306.995 63.858 306.102 64.402 305.407 64.977C304.741 65.5215 304.257 66.1115 303.955 66.7465C303.652 67.382 303.501 68.0775 303.501 68.834V69.061C303.501 69.605 303.592 70.1345 303.773 70.649C303.955 71.133 304.197 71.5565 304.499 71.9195C304.832 72.2825 305.21 72.57 305.633 72.7815C306.057 72.993 306.496 73.099 306.949 73.099C307.494 73.099 308.099 72.993 308.764 72.7815C309.46 72.5395 310.11 72.252 310.715 71.9195C311.32 71.5865 311.699 71.239 311.85 70.876C312.031 70.513 312.122 69.938 312.122 69.1515V61.6645ZM340.405 75.867V72.509C339.528 73.78 338.56 74.687 337.501 75.232C336.472 75.746 335.232 76.003 333.78 76.003C332.328 76.003 331.012 75.746 329.833 75.232C328.653 74.687 327.64 73.931 326.793 72.963C325.976 71.965 325.326 70.785 324.842 69.424C324.388 68.0625 324.161 66.55 324.161 64.886C324.161 63.041 324.448 61.317 325.023 59.7135C325.598 58.11 326.369 56.7035 327.337 55.4935C328.305 54.2835 329.44 53.331 330.74 52.635C332.071 51.939 333.478 51.5915 334.96 51.5915C336.019 51.5915 336.941 51.758 337.728 52.0905C338.514 52.393 339.407 52.968 340.405 53.815V45.8287C340.405 44.77 340.238 44.0591 339.906 43.6961C339.603 43.3331 338.968 43.1516 338 43.1516C337.788 43.1516 337.592 43.1667 337.41 43.197C337.259 43.197 337.077 43.2121 336.866 43.2424V42.3349C337.682 42.1231 338.423 41.9416 339.089 41.7904C339.754 41.6089 340.375 41.4425 340.949 41.2912C341.554 41.1097 342.129 40.9282 342.674 40.7467C343.248 40.5652 343.853 40.3535 344.489 40.1115L344.761 40.2476V69.605C344.761 70.815 344.897 71.617 345.169 72.01C345.472 72.373 346.092 72.5545 347.03 72.5545C347.181 72.5545 347.362 72.5545 347.574 72.5545C347.816 72.5245 348.043 72.509 348.255 72.509V73.326L340.632 76.003L340.405 75.867ZM340.405 58.216C340.405 57.5505 340.254 56.9155 339.951 56.3105C339.679 55.675 339.301 55.1155 338.817 54.6315C338.333 54.1475 337.758 53.7695 337.092 53.497C336.457 53.1945 335.792 53.0435 335.096 53.0435C334.128 53.0435 333.236 53.2855 332.419 53.7695C331.632 54.223 330.952 54.8885 330.377 55.766C329.833 56.613 329.409 57.6415 329.107 58.8515C328.804 60.031 328.653 61.347 328.653 62.799C328.653 64.402 328.82 65.854 329.152 67.155C329.485 68.456 329.954 69.56 330.559 70.4675C331.194 71.375 331.95 72.086 332.827 72.6C333.704 73.084 334.688 73.326 335.777 73.326C337.41 73.326 338.681 72.7815 339.588 71.6925C340.133 71.0875 340.405 70.6035 340.405 70.2405V58.216ZM373.225 67.382C372.136 70.2255 370.654 72.373 368.778 73.825C366.933 75.277 364.755 76.003 362.244 76.003C360.762 76.003 359.416 75.731 358.206 75.1865C357.026 74.642 356.013 73.8705 355.166 72.872C354.319 71.874 353.669 70.664 353.215 69.242C352.761 67.8205 352.534 66.217 352.534 64.4325C352.534 62.527 352.791 60.7875 353.306 59.2145C353.85 57.6415 354.591 56.295 355.529 55.176C356.497 54.0265 357.646 53.134 358.977 52.499C360.308 51.8635 361.775 51.546 363.378 51.546C364.74 51.546 365.98 51.803 367.099 52.3175C368.249 52.8315 369.217 53.5575 370.003 54.4955C370.336 54.919 370.608 55.3425 370.82 55.766C371.062 56.1895 371.259 56.658 371.41 57.1725C371.591 57.687 371.743 58.2615 371.864 58.897C371.985 59.532 372.106 60.258 372.227 61.075H356.3C356.36 62.7385 356.497 64.115 356.708 65.204C356.95 66.2625 357.328 67.291 357.843 68.2895C359.325 71.0725 361.503 72.464 364.377 72.464C366.04 72.464 367.477 72.0555 368.687 71.239C369.928 70.422 371.168 69.0305 372.408 67.064L373.225 67.382ZM366.963 59.3505C366.63 57.112 366.086 55.569 365.33 54.722C364.604 53.845 363.454 53.4065 361.881 53.4065C360.278 53.4065 359.022 53.875 358.115 54.813C357.238 55.751 356.663 57.263 356.391 59.3505H366.963Z" fill="black"/>
<path d="M173.268 66.792H172.784V70.664H173.268V66.792Z" fill="#D9D9D9"/>
<path d="M164.898 73.205L180.145 48.8022L195.392 73.205H164.898Z" stroke="black" stroke-width="2"/>
<path d="M170 70L180 54L190 70H170Z" stroke="black" stroke-width="2"/>
<path d="M175 67L180 60L185 67H175Z" stroke="black" stroke-width="2"/>
</g>
<path d="M32.6895 86.5156H35.0254V99.5283C35.0254 100.916 34.7588 102.029 34.2256 102.867C33.6924 103.705 32.9899 104.314 32.1182 104.695C31.2549 105.068 30.3239 105.254 29.3252 105.254C28.2588 105.254 27.2982 105.068 26.4434 104.695C25.5885 104.314 24.9072 103.705 24.3994 102.867C23.9001 102.029 23.6504 100.916 23.6504 99.5283V86.5156H25.9736V99.5283C25.9736 100.493 26.109 101.246 26.3799 101.788C26.6592 102.33 27.0485 102.711 27.5479 102.931C28.0557 103.151 28.6481 103.261 29.3252 103.261C30.0107 103.261 30.6032 103.151 31.1025 102.931C31.6104 102.711 31.9997 102.33 32.2705 101.788C32.5498 101.246 32.6895 100.493 32.6895 99.5283V86.5156ZM60.6887 86.5156V105H58.3401L50.9387 90.7432V105H48.6028V86.5156H50.9387L58.3782 100.811V86.5156H60.6887ZM77.1733 86.5156V105H74.8374V86.5156H77.1733ZM96.3239 102.194L100.767 86.5156H103.306L97.5681 105H95.778L96.3239 102.194ZM92.3376 86.5156L96.7429 102.194L97.3269 105H95.5368L89.7986 86.5156H92.3376ZM125.77 103.007V105H117.747V103.007H125.77ZM118.166 86.5156V105H115.83V86.5156H118.166ZM124.691 94.4629V96.4561H117.747V94.4629H124.691ZM125.644 86.5156V88.5215H117.747V86.5156H125.644ZM138.777 86.5156H143.944C145.145 86.5156 146.153 86.7272 146.965 87.1504C147.786 87.5736 148.404 88.1999 148.819 89.0293C149.242 89.8503 149.453 90.8617 149.453 92.0635C149.453 92.9098 149.314 93.6842 149.034 94.3867C148.755 95.0807 148.349 95.6732 147.816 96.1641C147.282 96.6465 146.635 97.0062 145.873 97.2432L145.238 97.5098H140.63L140.605 95.5166H143.918C144.629 95.5166 145.222 95.3643 145.696 95.0596C146.169 94.7464 146.525 94.3275 146.762 93.8027C146.999 93.278 147.117 92.6982 147.117 92.0635C147.117 91.3525 147.012 90.7305 146.8 90.1973C146.588 89.6641 146.25 89.2536 145.784 88.9658C145.327 88.6696 144.714 88.5215 143.944 88.5215H141.113V105H138.777V86.5156ZM147.651 105L143.969 96.6211L146.394 96.6084L150.152 104.848V105H147.651ZM170.673 100.328C170.673 99.8965 170.622 99.5156 170.521 99.1855C170.419 98.847 170.242 98.5423 169.988 98.2715C169.734 98.0007 169.378 97.7425 168.921 97.4971C168.464 97.2516 167.885 97.002 167.182 96.748C166.42 96.4772 165.731 96.1768 165.113 95.8467C164.495 95.5081 163.966 95.123 163.526 94.6914C163.094 94.2598 162.76 93.7646 162.523 93.2061C162.286 92.6475 162.167 92.0085 162.167 91.2891C162.167 90.5697 162.29 89.9053 162.536 89.2959C162.789 88.6865 163.145 88.1576 163.602 87.709C164.067 87.252 164.626 86.8965 165.278 86.6426C165.929 86.3887 166.657 86.2617 167.461 86.2617C168.663 86.2617 169.675 86.5283 170.496 87.0615C171.325 87.5863 171.951 88.276 172.374 89.1309C172.798 89.9772 173.009 90.8828 173.009 91.8477H170.673C170.673 91.1536 170.559 90.54 170.331 90.0068C170.11 89.4652 169.763 89.042 169.289 88.7373C168.824 88.4242 168.215 88.2676 167.461 88.2676C166.784 88.2676 166.226 88.3988 165.786 88.6611C165.354 88.9235 165.032 89.279 164.821 89.7275C164.618 90.1761 164.516 90.6882 164.516 91.2637C164.516 91.653 164.584 92.0085 164.719 92.3301C164.855 92.6432 165.062 92.9352 165.341 93.2061C165.629 93.4769 165.984 93.7266 166.408 93.9551C166.839 94.1836 167.347 94.4036 167.931 94.6152C168.837 94.9115 169.611 95.2415 170.254 95.6055C170.898 95.9694 171.422 96.3799 171.829 96.8369C172.235 97.2855 172.531 97.7975 172.717 98.373C172.912 98.9401 173.009 99.5833 173.009 100.303C173.009 101.056 172.882 101.737 172.628 102.347C172.383 102.956 172.023 103.477 171.549 103.908C171.075 104.34 170.504 104.674 169.835 104.911C169.167 105.14 168.414 105.254 167.576 105.254C166.848 105.254 166.133 105.135 165.43 104.898C164.736 104.661 164.106 104.306 163.539 103.832C162.971 103.358 162.519 102.774 162.18 102.08C161.842 101.378 161.672 100.565 161.672 99.6426H164.008C164.008 100.277 164.101 100.823 164.288 101.28C164.474 101.729 164.732 102.101 165.062 102.397C165.392 102.694 165.769 102.914 166.192 103.058C166.623 103.193 167.085 103.261 167.576 103.261C168.253 103.261 168.82 103.142 169.277 102.905C169.742 102.668 170.089 102.33 170.318 101.89C170.555 101.45 170.673 100.929 170.673 100.328ZM196.019 103.007V105H187.996V103.007H196.019ZM188.415 86.5156V105H186.079V86.5156H188.415ZM194.94 94.4629V96.4561H187.996V94.4629H194.94ZM195.892 86.5156V88.5215H187.996V86.5156H195.892ZM234.574 103.007V105H226.906V103.007H234.574ZM227.325 86.5156V105H224.989V86.5156H227.325ZM249.802 86.5156V105H247.466V86.5156H249.802ZM264.611 86.5156H266.871L271.708 101.585L276.532 86.5156H278.792L272.584 105H270.806L264.611 86.5156ZM263.875 86.5156H265.855L266.198 97.7891V105H263.875V86.5156ZM277.535 86.5156H279.515V105H277.192V97.7891L277.535 86.5156ZM295.974 86.5156V105H293.639V86.5156H295.974ZM315.608 86.5156V105H313.297V86.5156H315.608ZM320.47 86.5156V88.5215H308.447V86.5156H320.47ZM343.15 103.007V105H335.126V103.007H343.15ZM335.545 86.5156V105H333.209V86.5156H335.545ZM342.071 94.4629V96.4561H335.126V94.4629H342.071ZM343.023 86.5156V88.5215H335.126V86.5156H343.023ZM360.333 105H357.184L357.21 103.007H360.333C361.441 103.007 362.343 102.795 363.037 102.372C363.731 101.94 364.243 101.306 364.573 100.468C364.903 99.6214 365.068 98.5762 365.068 97.332V94.1709C365.068 93.1891 364.975 92.3428 364.789 91.6318C364.602 90.9209 364.323 90.3369 363.951 89.8799C363.578 89.4229 363.109 89.0843 362.542 88.8643C361.975 88.6357 361.31 88.5215 360.548 88.5215H357.121V86.5156H360.548C361.589 86.5156 362.529 86.6807 363.367 87.0107C364.205 87.3324 364.924 87.819 365.525 88.4707C366.126 89.1139 366.583 89.9137 366.896 90.8701C367.218 91.8265 367.379 92.9352 367.379 94.1963V97.332C367.379 98.5931 367.218 99.7018 366.896 100.658C366.583 101.615 366.122 102.414 365.512 103.058C364.903 103.701 364.162 104.188 363.291 104.518C362.427 104.839 361.441 105 360.333 105ZM358.479 86.5156V105H356.143V86.5156H358.479Z" fill="black"/>
</g>
<defs>
<clipPath id="clip0_6_2">
<rect width="393" height="121" fill="white"/>
</clipPath>
</defs>
</svg>
