<svg width="64" height="64" viewBox="0 0 64 64" fill="none" xmlns="http://www.w3.org/2000/svg">
<path d="M63.9711 18.7871C63.8677 15.4839 63.2476 13.1097 62.5242 10.9419C61.8008 8.77419 60.664 7.01935 58.9071 5.26452C57.1502 3.50968 55.3934 2.47742 53.3264 1.65161C51.2595 0.825806 48.9859 0.309677 45.4722 0.206452C41.8551 4.61455e-08 40.8216 0 32.0372 0C23.2528 0 22.3227 2.30728e-08 18.8089 0.103226C15.2952 0.206452 13.1249 0.825806 10.9547 1.54839C8.78439 2.27097 7.02752 3.50968 5.27064 5.26452C3.51376 7.01935 2.37695 8.77419 1.65353 10.9419C0.826766 13.0065 0.310037 15.2774 0.206692 18.7871C0.103346 22.2968 0 23.2258 0 32C0 40.7742 2.30996e-08 41.7032 0.103346 45.2129C0.206692 48.7226 0.826767 50.8903 1.55019 53.0581C2.27361 55.2258 3.41041 56.9806 5.16729 58.7355C6.92417 60.4903 8.78439 61.6258 10.8513 62.3484C12.9182 63.071 15.1918 63.6903 18.7056 63.7935C22.2194 64 23.1495 64 31.9339 64C40.7183 64 41.6484 64 45.1621 63.8968C48.6759 63.7935 50.8461 63.1742 53.0164 62.4516C55.1867 61.729 56.9435 60.5935 58.7004 58.8387C60.4573 57.0839 61.5941 55.2258 62.3175 53.1613C63.0409 51.0968 63.661 48.8258 63.7644 45.3161C63.8677 42.0129 63.8677 40.9806 63.8677 32.2065C63.8677 23.4323 64.0744 22.2968 63.9711 18.7871ZM58.1837 44.9032C58.0803 48 57.4603 49.6516 57.0469 50.8903C56.4268 52.3355 55.7034 53.471 54.5666 54.5032C53.4298 55.6387 52.3963 56.2581 50.9495 56.9806C49.8127 57.3935 48.1591 58.0129 44.9554 58.1161C41.6484 58.1161 40.6149 58.1161 32.1405 58.1161C23.6662 58.1161 22.5294 58.1161 19.2223 58.0129C16.1219 57.9097 14.4684 57.2903 13.2283 56.8774C11.7814 56.2581 10.6446 55.5355 9.61116 54.4C8.47436 53.2645 7.85428 52.2323 7.13086 50.7871C6.71748 49.6516 6.0974 48 5.99406 44.8C5.99406 41.6 5.99406 40.5677 5.99406 32C5.99406 23.4323 5.99406 22.4 6.0974 19.0968C6.20075 16 6.82082 14.3484 7.23421 13.1097C7.85428 11.6645 8.5777 10.529 9.61116 9.49677C10.748 8.36129 11.7814 7.74194 13.2283 7.12258C14.3651 6.70968 16.0186 6.09032 19.2223 5.9871C22.5294 5.88387 23.5628 5.88387 32.1405 5.88387C40.7183 5.88387 41.7517 5.88387 45.0588 5.9871C48.1591 6.09032 49.8127 6.70968 51.0528 7.12258C52.4997 7.74194 53.6365 8.46452 54.6699 9.49677C55.8067 10.6323 56.4268 11.6645 57.1502 13.1097C57.5636 14.2452 58.1837 15.8968 58.287 19.0968C58.3904 22.4 58.3904 23.4323 58.3904 32C58.3904 40.5677 58.287 41.6 58.1837 44.9032Z" fill="black"/>
<path d="M32.0389 15.5867C22.8411 15.5867 15.6069 23.0189 15.6069 31.9996C15.6069 41.1867 23.0478 48.4125 32.0389 48.4125C41.0299 48.4125 48.5742 41.1867 48.5742 31.9996C48.5742 22.8125 41.2366 15.5867 32.0389 15.5867ZM32.0389 42.7351C26.0448 42.7351 21.2909 37.8835 21.2909 31.9996C21.2909 26.1157 26.1481 21.2641 32.0389 21.2641C38.0329 21.2641 42.7868 26.0125 42.7868 31.9996C42.7868 37.9867 38.0329 42.7351 32.0389 42.7351Z" fill="black"/>
<path d="M49.296 18.6841C51.4078 18.6841 53.1198 16.974 53.1198 14.8647C53.1198 12.7553 51.4078 11.0454 49.296 11.0454C47.1841 11.0454 45.4722 12.7553 45.4722 14.8647C45.4722 16.974 47.1841 18.6841 49.296 18.6841Z" fill="black"/>
</svg>
