<svg width="461" height="142" viewBox="0 0 461 142" fill="none" xmlns="http://www.w3.org/2000/svg">
<mask id="mask0_18_37" style="mask-type:luminance" maskUnits="userSpaceOnUse" x="0" y="0" width="461" height="142">
<path d="M461 0H0V142H461V0Z" fill="white"/>
</mask>
<g mask="url(#mask0_18_37)">
<mask id="mask1_18_37" style="mask-type:luminance" maskUnits="userSpaceOnUse" x="0" y="0" width="461" height="142">
<path d="M461 0H0V142H461V0Z" fill="white"/>
</mask>
<g mask="url(#mask1_18_37)">
<path d="M36.5479 50.907C34.8447 50.907 33.443 50.9957 32.3431 51.1733C31.2786 51.3507 30.3915 51.7234 29.6818 52.2914C29.0077 52.8594 28.4577 53.6583 28.0318 54.6877C27.6416 55.6817 27.2689 57.013 26.9141 58.6812H25.4237L25.7964 48.351H60.0731L60.446 58.6812H58.9558C58.601 57.013 58.2103 55.6817 57.7845 54.6877C57.3945 53.6583 56.8619 52.8594 56.1879 52.2914C55.5137 51.7234 54.6266 51.3507 53.5267 51.1733C52.4267 50.9957 51.0074 50.907 49.2686 50.907H46.0219V82.0584C46.0219 83.1586 46.0928 84.0464 46.2348 84.7206C46.3767 85.3954 46.6429 85.9276 47.0333 86.3184C47.4591 86.7086 48.0445 86.9926 48.7896 87.1704C49.5703 87.3124 50.5816 87.4186 51.8234 87.4896V88.608H34.1527V87.4896C35.3947 87.4186 36.3883 87.3124 37.1333 87.1704C37.8785 86.9926 38.4462 86.691 38.8365 86.265C39.2623 85.8032 39.5285 85.1824 39.6349 84.4014C39.7768 83.6204 39.8478 82.5906 39.8478 81.3126V50.907H36.5479ZM74.0353 82.431C74.0353 83.4608 74.0887 84.3128 74.1948 84.987C74.3016 85.626 74.4963 86.1406 74.7802 86.5314C75.0641 86.8864 75.4723 87.1528 76.0048 87.33C76.5726 87.5072 77.2998 87.6492 78.1867 87.756V88.608H65.0402V87.756C65.9276 87.614 66.6191 87.4544 67.1159 87.2766C67.6483 87.0994 68.0383 86.833 68.287 86.478C68.5709 86.0872 68.748 85.5908 68.819 84.987C68.8899 84.348 68.9257 83.496 68.9257 82.431V53.7824C68.9257 53.1434 68.8899 52.6287 68.819 52.2383C68.748 51.8123 68.5885 51.4927 68.3404 51.2797C68.1275 51.0313 67.8078 50.8714 67.382 50.8004C66.992 50.7294 66.4771 50.694 65.8384 50.694C65.4836 50.694 65.2355 50.7117 65.0936 50.7473V49.7354L66.7434 49.3094C67.5949 49.0254 68.3404 48.7947 68.9791 48.6173C69.6178 48.4043 70.2031 48.2267 70.7351 48.0847C71.2677 47.9073 71.7644 47.7474 72.2254 47.6054C72.6869 47.428 73.1837 47.2504 73.7157 47.073L74.0353 47.286V65.817C75.4547 63.9352 76.8383 62.6044 78.1867 61.8234C79.5707 61.0424 81.1496 60.6516 82.9238 60.6516C85.4786 60.6516 87.3595 61.4684 88.566 63.1014C89.7723 64.7344 90.3752 67.1484 90.3752 70.3434V82.431C90.3752 83.4608 90.411 84.2946 90.482 84.9336C90.5529 85.5374 90.7125 86.0344 90.9606 86.4246C91.2445 86.7796 91.6351 87.0636 92.1318 87.2766C92.6286 87.4544 93.2849 87.614 94.1014 87.756V88.608H81.2206V87.756C82.108 87.6492 82.8177 87.5072 83.3496 87.33C83.8821 87.1528 84.2897 86.8864 84.5736 86.5314C84.8932 86.1406 85.0885 85.626 85.1595 84.987C85.2656 84.3128 85.319 83.4608 85.319 82.431V70.4496C85.319 66.1544 83.8287 64.0068 80.8481 64.0068C79.6059 64.0068 78.4705 64.2908 77.4418 64.8588C76.4482 65.391 75.3127 66.3674 74.0353 67.7874V82.431ZM123.658 79.0764C122.381 82.4134 120.641 84.9336 118.442 86.6376C116.278 88.3416 113.723 89.1936 110.777 89.1936C109.039 89.1936 107.46 88.8744 106.041 88.2354C104.657 87.5964 103.468 86.691 102.474 85.5192C101.481 84.348 100.718 82.928 100.186 81.2592C99.6538 79.591 99.3875 77.7092 99.3875 75.615C99.3875 73.3788 99.689 71.3374 100.292 69.4914C100.931 67.6454 101.8 66.0652 102.9 64.752C104.036 63.403 105.384 62.3556 106.945 61.6104C108.506 60.8646 110.228 60.492 112.108 60.492C113.705 60.492 115.16 60.7936 116.473 61.3974C117.821 62.0006 118.957 62.8526 119.879 63.9534C120.269 64.4504 120.588 64.9474 120.837 65.4444C121.121 65.9414 121.351 66.4912 121.529 67.095C121.742 67.6988 121.919 68.373 122.061 69.1188C122.203 69.864 122.344 70.716 122.486 71.6748H103.805C103.876 73.627 104.036 75.2424 104.284 76.5204C104.568 77.7626 105.011 78.9696 105.615 80.1414C107.353 83.4074 109.908 85.0404 113.279 85.0404C115.231 85.0404 116.916 84.561 118.335 83.6028C119.79 82.644 121.245 81.011 122.7 78.7032L123.658 79.0764ZM116.313 69.651C115.923 67.024 115.284 65.2132 114.397 64.2192C113.545 63.19 112.197 62.6754 110.352 62.6754C108.471 62.6754 106.999 63.2252 105.934 64.326C104.905 65.4268 104.231 67.2012 103.912 69.651H116.313ZM177.981 66.8286V55.0073C177.981 53.9067 177.911 53.037 177.769 52.398C177.662 51.7234 177.415 51.191 177.024 50.8004C176.669 50.41 176.137 50.1437 175.428 50.0017C174.718 49.8243 173.777 49.6823 172.606 49.5757V48.351H189.478V49.5757C188.307 49.6823 187.367 49.8243 186.657 50.0017C185.947 50.1437 185.397 50.41 185.008 50.8004C184.652 51.191 184.422 51.7234 184.316 52.398C184.209 53.037 184.156 53.9067 184.156 55.0073V82.0584C184.156 83.1234 184.209 83.993 184.316 84.6672C184.457 85.3068 184.724 85.8214 185.113 86.2116C185.504 86.6024 186.036 86.8864 186.711 87.0636C187.421 87.2414 188.343 87.3834 189.478 87.4896V88.608H172.606V87.4896C173.777 87.4186 174.718 87.3124 175.428 87.1704C176.137 86.9926 176.669 86.691 177.024 86.265C177.415 85.8032 177.662 85.1824 177.769 84.4014C177.911 83.6204 177.981 82.5906 177.981 81.3126V69.4914H159.513V82.0584C159.513 83.1234 159.566 83.993 159.673 84.6672C159.815 85.3068 160.081 85.8214 160.47 86.2116C160.861 86.6024 161.411 86.8864 162.121 87.0636C162.83 87.2414 163.752 87.3834 164.888 87.4896V88.608H147.962V87.4896C149.169 87.4186 150.126 87.3124 150.836 87.1704C151.546 86.9926 152.078 86.691 152.434 86.265C152.823 85.8032 153.072 85.1824 153.179 84.4014C153.285 83.6204 153.338 82.5906 153.338 81.3126V55.0073C153.338 53.9067 153.268 53.037 153.126 52.398C153.019 51.7234 152.77 51.191 152.38 50.8004C152.026 50.41 151.493 50.1437 150.783 50.0017C150.074 49.8243 149.133 49.6823 147.962 49.5757V48.351H164.888V49.5757C163.717 49.6823 162.778 49.8243 162.068 50.0017C161.358 50.1437 160.808 50.41 160.417 50.8004C160.062 51.191 159.815 51.7234 159.673 52.398C159.566 53.037 159.513 53.9067 159.513 55.0073V66.8286H177.981ZM232.589 63.3672C234.256 62.906 235.693 62.48 236.9 62.0892C238.142 61.699 239.49 61.2196 240.945 60.6516L241.423 60.7584V65.604C242.453 64.6452 243.358 63.8466 244.138 63.2076C244.919 62.5686 245.629 62.0716 246.267 61.7166C246.941 61.3264 247.58 61.06 248.183 60.918C248.822 60.7408 249.496 60.6516 250.206 60.6516C252.441 60.6516 254.198 61.4508 255.475 63.048C256.752 64.6452 257.392 66.882 257.392 69.7572V83.709C257.392 85.1648 257.64 86.1588 258.137 86.691C258.634 87.2232 259.609 87.5788 261.064 87.756V88.608H248.45V87.756C249.195 87.685 249.815 87.5606 250.312 87.3834C250.809 87.2056 251.199 86.9216 251.483 86.5314C251.802 86.1406 252.016 85.626 252.122 84.987C252.228 84.348 252.282 83.5494 252.282 82.5906V69.864C252.282 65.959 250.809 64.0068 247.864 64.0068C247.367 64.0068 246.888 64.0596 246.427 64.1664C245.965 64.2726 245.487 64.4504 244.989 64.6986C244.528 64.9474 244.014 65.3024 243.447 65.7636C242.914 66.2254 242.275 66.7934 241.53 67.4676V84.561C241.53 85.6612 241.814 86.4428 242.382 86.904C242.949 87.33 244.014 87.614 245.576 87.756V88.608H232.695V87.756C233.476 87.685 234.096 87.5788 234.557 87.4368C235.055 87.259 235.445 86.9926 235.729 86.6376C236.013 86.2826 236.208 85.839 236.315 85.3068C236.421 84.7388 236.474 84.0288 236.474 83.1768V68.0532C236.474 66.5628 236.315 65.5506 235.996 65.0184C235.675 64.4504 235.09 64.1664 234.238 64.1664C233.6 64.1664 233.05 64.255 232.589 64.4328V63.3672ZM285.671 89.034V85.0932C284.642 86.5848 283.507 87.6492 282.265 88.2888C281.057 88.892 279.603 89.1936 277.9 89.1936C276.196 89.1936 274.653 88.892 273.27 88.2888C271.886 87.6492 270.696 86.762 269.703 85.626C268.745 84.4548 267.983 83.07 267.415 81.4728C266.883 79.875 266.616 78.1 266.616 76.1472C266.616 73.982 266.954 71.9588 267.628 70.077C268.302 68.1952 269.206 66.5446 270.342 65.1246C271.477 63.7046 272.808 62.5868 274.334 61.77C275.895 60.9532 277.545 60.5454 279.284 60.5454C280.526 60.5454 281.608 60.7408 282.531 61.131C283.453 61.486 284.5 62.1608 285.671 63.1548V53.7824C285.671 52.54 285.476 51.7057 285.086 51.2797C284.73 50.8537 283.985 50.6407 282.85 50.6407C282.601 50.6407 282.371 50.6584 282.158 50.694C281.981 50.694 281.767 50.7117 281.52 50.7473V49.6823C282.477 49.4337 283.347 49.2207 284.127 49.0433C284.909 48.8303 285.636 48.635 286.309 48.4574C287.019 48.2444 287.693 48.0314 288.333 47.8184C289.006 47.6054 289.716 47.357 290.462 47.073L290.781 47.2327V81.6852C290.781 83.1052 290.94 84.0464 291.259 84.5076C291.615 84.9336 292.342 85.1466 293.442 85.1466C293.619 85.1466 293.832 85.1466 294.08 85.1466C294.364 85.1114 294.631 85.0932 294.879 85.0932V86.052L285.937 89.1936L285.671 89.034ZM285.671 68.3196C285.671 67.5386 285.494 66.7934 285.138 66.0834C284.819 65.3376 284.376 64.681 283.808 64.113C283.241 63.545 282.566 63.1014 281.786 62.7816C281.04 62.4266 280.26 62.2494 279.443 62.2494C278.308 62.2494 277.262 62.5334 276.303 63.1014C275.38 63.6336 274.582 64.4146 273.908 65.4444C273.27 66.4384 272.772 67.6454 272.418 69.0654C272.063 70.4496 271.886 71.994 271.886 73.698C271.886 75.5792 272.08 77.2832 272.471 78.81C272.862 80.3368 273.412 81.6324 274.121 82.6974C274.866 83.7624 275.753 84.5968 276.782 85.2C277.812 85.768 278.965 86.052 280.242 86.052C282.158 86.052 283.649 85.413 284.713 84.135C285.352 83.425 285.671 82.857 285.671 82.431V68.3196ZM299.526 63.3672C300.377 63.1548 301.141 62.9412 301.815 62.7288C302.525 62.5152 303.216 62.3028 303.891 62.0892C304.565 61.8768 305.222 61.6632 305.86 61.4508C306.534 61.202 307.262 60.9356 308.042 60.6516L308.468 60.7584V65.3376C309.745 64.3794 310.828 63.5984 311.715 62.9946C312.603 62.3556 313.383 61.8768 314.057 61.557C314.767 61.202 315.405 60.9714 315.973 60.8646C316.54 60.7226 317.162 60.6516 317.835 60.6516C321.136 60.6516 323.283 62.3732 324.277 65.817C325.98 64.0068 327.611 62.693 329.173 61.8768C330.769 61.06 332.455 60.6516 334.229 60.6516C338.949 60.6516 341.308 64.2374 341.308 71.4084V83.9754C341.308 86.2826 342.196 87.4896 343.969 87.5964L345.513 87.756V88.608H332.206V87.756C333.093 87.6492 333.785 87.5254 334.283 87.3834C334.815 87.2056 335.204 86.975 335.453 86.691C335.737 86.3712 335.914 85.9452 335.986 85.413C336.092 84.8808 336.145 84.1708 336.145 83.283V70.503C336.145 69.225 336.074 68.16 335.932 67.308C335.79 66.456 335.542 65.7812 335.187 65.2848C334.833 64.752 334.353 64.3794 333.75 64.1664C333.182 63.9176 332.472 63.7932 331.621 63.7932C330.201 63.7932 328.977 64.0954 327.948 64.6986C326.919 65.2666 325.945 66.2072 325.021 67.521V82.857C325.021 83.78 325.074 84.561 325.181 85.2C325.323 85.8032 325.554 86.3008 325.873 86.691C326.228 87.046 326.689 87.3124 327.257 87.4896C327.825 87.6316 328.534 87.7208 329.385 87.756V88.608H315.76V87.756C316.612 87.685 317.304 87.5788 317.835 87.4368C318.403 87.2948 318.829 87.0636 319.113 86.7444C319.433 86.4246 319.645 85.9986 319.752 85.4664C319.859 84.9336 319.912 84.2412 319.912 83.3892V70.1832C319.912 65.9232 318.599 63.7932 315.973 63.7932C314.837 63.7932 313.649 64.042 312.407 64.539C311.201 65.036 310.242 65.6392 309.533 66.3492C309 66.953 308.734 67.308 308.734 67.4148V84.561C308.734 85.768 309 86.5848 309.533 87.0108C310.1 87.4368 311.201 87.685 312.832 87.756V88.608H299.366V87.756C300.218 87.7208 300.91 87.6316 301.442 87.4896C302.01 87.3476 302.454 87.117 302.773 86.7972C303.093 86.478 303.305 86.052 303.412 85.5192C303.554 84.9512 303.624 84.2594 303.624 83.4426V68.0532C303.624 66.5628 303.465 65.5506 303.146 65.0184C302.862 64.4504 302.312 64.1664 301.495 64.1664C301.141 64.1664 300.822 64.2016 300.538 64.2726C300.289 64.3084 299.951 64.3612 299.526 64.4328V63.3672ZM371.025 82.218C371.025 83.567 371.148 84.5076 371.397 85.0404C371.646 85.5374 372.124 85.7856 372.834 85.7856C373.65 85.7856 374.537 85.413 375.496 84.6672V86.2116C374.467 87.3476 373.561 88.1286 372.781 88.5546C372 88.9806 371.096 89.1936 370.067 89.1936C368.825 89.1936 367.903 88.8568 367.299 88.182C366.731 87.472 366.377 86.3008 366.235 84.6672C364.389 86.265 362.774 87.4186 361.391 88.1286C360.007 88.8386 358.658 89.1936 357.345 89.1936C355.43 89.1936 353.869 88.5904 352.663 87.3834C351.491 86.1764 350.905 84.6144 350.905 82.6974C350.905 81.7386 351.084 80.7804 351.438 79.8216C351.829 78.8276 352.379 78.029 353.088 77.4252C353.727 76.8572 354.312 76.3784 354.844 75.9876C355.412 75.5616 356.139 75.1356 357.026 74.7096C357.913 74.2484 359.066 73.7332 360.486 73.1652C361.905 72.5972 363.787 71.8344 366.128 70.8756V66.9888C366.128 65.32 365.72 64.0596 364.903 63.2076C364.123 62.3556 362.988 61.9296 361.497 61.9296C360.256 61.9296 359.208 62.2312 358.357 62.835C357.541 63.403 357.133 64.0954 357.133 64.9116C357.133 65.2314 357.168 65.6392 357.239 66.1368C357.345 66.6332 357.399 67.0416 357.399 67.3614C357.399 68.0714 357.115 68.6746 356.548 69.1716C356.015 69.6686 355.395 69.9174 354.685 69.9174C353.975 69.9174 353.355 69.6686 352.822 69.1716C352.325 68.6394 352.077 68.018 352.077 67.308C352.077 66.527 352.29 65.7284 352.715 64.9116C353.176 64.0954 353.798 63.3672 354.578 62.7288C355.395 62.0188 356.477 61.4684 357.825 61.0776C359.208 60.6874 360.699 60.492 362.296 60.492C364.141 60.492 365.684 60.8112 366.927 61.4508C368.204 62.054 369.18 62.906 369.853 64.0068C370.279 64.7168 370.581 65.5506 370.759 66.5094C370.936 67.4324 371.025 68.6928 371.025 70.29V82.218ZM366.128 72.3666C364.283 73.0414 362.704 73.698 361.391 74.337C360.114 74.9408 359.066 75.5792 358.251 76.254C357.47 76.893 356.902 77.5854 356.548 78.3306C356.192 79.0764 356.015 79.8926 356.015 80.7804V81.0468C356.015 81.6852 356.122 82.3066 356.334 82.9104C356.548 83.4784 356.832 83.9754 357.186 84.4014C357.576 84.8274 358.02 85.1648 358.516 85.413C359.013 85.6612 359.528 85.7856 360.06 85.7856C360.699 85.7856 361.409 85.6612 362.189 85.413C363.005 85.129 363.768 84.7916 364.477 84.4014C365.187 84.0106 365.632 83.6028 365.809 83.1768C366.021 82.7508 366.128 82.076 366.128 81.153V72.3666ZM399.305 89.034V85.0932C398.276 86.5848 397.14 87.6492 395.898 88.2888C394.691 88.892 393.237 89.1936 391.533 89.1936C389.83 89.1936 388.286 88.892 386.903 88.2888C385.519 87.6492 384.331 86.762 383.337 85.626C382.379 84.4548 381.616 83.07 381.049 81.4728C380.516 79.875 380.25 78.1 380.25 76.1472C380.25 73.982 380.587 71.9588 381.261 70.077C381.936 68.1952 382.84 66.5446 383.975 65.1246C385.111 63.7046 386.442 62.5868 387.967 61.77C389.529 60.9532 391.179 60.5454 392.917 60.5454C394.16 60.5454 395.241 60.7408 396.164 61.131C397.086 61.486 398.134 62.1608 399.305 63.1548V53.7824C399.305 52.54 399.109 51.7057 398.719 51.2797C398.364 50.8537 397.619 50.6407 396.483 50.6407C396.235 50.6407 396.005 50.6584 395.791 50.694C395.614 50.694 395.401 50.7117 395.153 50.7473V49.6823C396.11 49.4337 396.98 49.2207 397.761 49.0433C398.541 48.8303 399.269 48.635 399.943 48.4574C400.652 48.2444 401.327 48.0314 401.966 47.8184C402.64 47.6054 403.349 47.357 404.095 47.073L404.414 47.2327V81.6852C404.414 83.1052 404.574 84.0464 404.893 84.5076C405.248 84.9336 405.976 85.1466 407.076 85.1466C407.253 85.1466 407.465 85.1466 407.714 85.1466C407.998 85.1114 408.264 85.0932 408.513 85.0932V86.052L399.571 89.1936L399.305 89.034ZM399.305 68.3196C399.305 67.5386 399.127 66.7934 398.772 66.0834C398.453 65.3376 398.01 64.681 397.442 64.113C396.874 63.545 396.2 63.1014 395.418 62.7816C394.673 62.4266 393.893 62.2494 393.077 62.2494C391.942 62.2494 390.895 62.5334 389.937 63.1014C389.014 63.6336 388.216 64.4146 387.542 65.4444C386.903 66.4384 386.406 67.6454 386.052 69.0654C385.696 70.4496 385.519 71.994 385.519 73.698C385.519 75.5792 385.715 77.2832 386.104 78.81C386.495 80.3368 387.045 81.6324 387.755 82.6974C388.5 83.7624 389.387 84.5968 390.415 85.2C391.444 85.768 392.598 86.052 393.876 86.052C395.791 86.052 397.282 85.413 398.346 84.135C398.986 83.425 399.305 82.857 399.305 82.431V68.3196ZM437.803 79.0764C436.526 82.4134 434.788 84.9336 432.587 86.6376C430.423 88.3416 427.868 89.1936 424.922 89.1936C423.184 89.1936 421.605 88.8744 420.186 88.2354C418.802 87.5964 417.613 86.691 416.62 85.5192C415.626 84.348 414.864 82.928 414.331 81.2592C413.798 79.591 413.532 77.7092 413.532 75.615C413.532 73.3788 413.834 71.3374 414.438 69.4914C415.076 67.6454 415.945 66.0652 417.045 64.752C418.181 63.403 419.529 62.3556 421.09 61.6104C422.651 60.8646 424.372 60.492 426.253 60.492C427.85 60.492 429.305 60.7936 430.617 61.3974C431.966 62.0006 433.102 62.8526 434.024 63.9534C434.414 64.4504 434.734 64.9474 434.982 65.4444C435.266 65.9414 435.497 66.4912 435.674 67.095C435.887 67.6988 436.065 68.373 436.207 69.1188C436.349 69.864 436.491 70.716 436.633 71.6748H417.95C418.02 73.627 418.181 75.2424 418.428 76.5204C418.712 77.7626 419.156 78.9696 419.76 80.1414C421.498 83.4074 424.053 85.0404 427.424 85.0404C429.375 85.0404 431.061 84.561 432.48 83.6028C433.936 82.644 435.39 81.011 436.845 78.7032L437.803 79.0764ZM430.458 69.651C430.067 67.024 429.429 65.2132 428.542 64.2192C427.691 63.19 426.342 62.6754 424.497 62.6754C422.616 62.6754 421.143 63.2252 420.079 64.326C419.05 65.4268 418.376 67.2012 418.057 69.651H430.458Z" fill="black"/>
<path d="M203.248 78.384H202.68V82.928H203.248V78.384Z" fill="#D9D9D9"/>
<path d="M193.43 85.91L211.315 57.272L229.2 85.91H193.43Z" stroke="black" stroke-width="2"/>
<path d="M199.415 82.1488L211.145 63.3719L222.875 82.1488H199.415Z" stroke="black" stroke-width="2"/>
<path d="M205.28 78.6281L211.145 70.4132L217.01 78.6281H205.28Z" stroke="black" stroke-width="2"/>
</g>
<path d="M38.3457 101.531H41.0858V116.802C41.0858 118.43 40.773 119.737 40.1476 120.72C39.5221 121.703 38.6981 122.418 37.6755 122.865C36.6629 123.303 35.5708 123.521 34.3993 123.521C33.1484 123.521 32.0216 123.303 31.0188 122.865C30.016 122.418 29.2168 121.703 28.6212 120.72C28.0355 119.737 27.7426 118.43 27.7426 116.802V101.531H30.4678V116.802C30.4678 117.934 30.6266 118.818 30.9444 119.454C31.272 120.09 31.7286 120.537 32.3145 120.795C32.9101 121.053 33.605 121.182 34.3993 121.182C35.2034 121.182 35.8984 121.053 36.4841 120.795C37.0799 120.537 37.5365 120.09 37.8542 119.454C38.1818 118.818 38.3457 117.934 38.3457 116.802V101.531ZM71.1895 101.531V123.223H68.4346L59.7525 106.492V123.223H57.0124V101.531H59.7525L68.4793 118.307V101.531H71.1895ZM90.5264 101.531V123.223H87.7864V101.531H90.5264ZM112.991 119.93L118.203 101.531H121.181L114.45 123.223H112.35L112.991 119.93ZM108.315 101.531L113.482 119.93L114.167 123.223H112.067L105.336 101.531H108.315ZM147.532 120.884V123.223H138.121V120.884H147.532ZM138.612 101.531V123.223H135.872V101.531H138.612ZM146.266 110.857V113.196H138.121V110.857H146.266ZM147.384 101.531V103.885H138.121V101.531H147.384ZM162.789 101.531H168.85C170.259 101.531 171.442 101.779 172.394 102.276C173.357 102.772 174.082 103.507 174.569 104.481C175.065 105.444 175.313 106.631 175.313 108.041C175.313 109.035 175.15 109.943 174.821 110.768C174.494 111.582 174.018 112.278 173.392 112.854C172.766 113.42 172.007 113.842 171.113 114.12L170.368 114.433H164.963L164.934 112.094H168.82C169.654 112.094 170.349 111.915 170.905 111.558C171.46 111.19 171.878 110.698 172.156 110.083C172.434 109.467 172.572 108.786 172.572 108.041C172.572 107.207 172.449 106.477 172.201 105.851C171.952 105.226 171.555 104.744 171.009 104.406C170.473 104.059 169.754 103.885 168.85 103.885H165.53V123.223H162.789V101.531ZM173.199 123.223L168.88 113.39L171.724 113.375L176.132 123.045V123.223H173.199ZM200.204 117.74C200.204 117.234 200.144 116.787 200.026 116.4C199.906 116.002 199.699 115.645 199.401 115.327C199.103 115.009 198.685 114.706 198.149 114.418C197.613 114.13 196.934 113.837 196.109 113.539C195.215 113.221 194.407 112.869 193.682 112.481C192.957 112.084 192.337 111.632 191.821 111.125C191.314 110.619 190.922 110.038 190.644 109.382C190.366 108.727 190.226 107.977 190.226 107.133C190.226 106.288 190.371 105.509 190.659 104.794C190.956 104.078 191.374 103.458 191.91 102.931C192.455 102.395 193.111 101.978 193.876 101.68C194.639 101.382 195.493 101.233 196.436 101.233C197.846 101.233 199.034 101.546 199.997 102.171C200.969 102.787 201.703 103.597 202.2 104.6C202.697 105.593 202.944 106.656 202.944 107.788H200.204C200.204 106.974 200.07 106.254 199.803 105.628C199.544 104.992 199.137 104.496 198.581 104.138C198.035 103.771 197.321 103.587 196.436 103.587C195.642 103.587 194.988 103.741 194.472 104.049C193.965 104.357 193.587 104.774 193.34 105.3C193.102 105.826 192.982 106.427 192.982 107.103C192.982 107.56 193.062 107.977 193.22 108.354C193.38 108.722 193.622 109.064 193.95 109.382C194.287 109.7 194.704 109.993 195.201 110.261C195.707 110.53 196.303 110.788 196.988 111.036C198.051 111.384 198.958 111.771 199.713 112.198C200.468 112.625 201.083 113.107 201.56 113.643C202.036 114.17 202.384 114.771 202.602 115.446C202.831 116.112 202.944 116.866 202.944 117.711C202.944 118.595 202.795 119.394 202.497 120.11C202.21 120.824 201.788 121.436 201.232 121.942C200.676 122.449 200.006 122.841 199.221 123.119C198.438 123.387 197.554 123.521 196.571 123.521C195.717 123.521 194.879 123.382 194.054 123.103C193.24 122.825 192.501 122.409 191.836 121.852C191.17 121.296 190.639 120.611 190.242 119.796C189.845 118.973 189.646 118.018 189.646 116.936H192.386C192.386 117.68 192.495 118.321 192.714 118.858C192.933 119.384 193.235 119.821 193.622 120.168C194.009 120.517 194.452 120.775 194.948 120.944C195.453 121.103 195.995 121.182 196.571 121.182C197.365 121.182 198.031 121.043 198.567 120.765C199.112 120.486 199.519 120.09 199.788 119.573C200.066 119.057 200.204 118.446 200.204 117.74ZM229.936 120.884V123.223H220.525V120.884H229.936ZM221.016 101.531V123.223H218.276V101.531H221.016ZM228.67 110.857V113.196H220.525V110.857H228.67ZM229.787 101.531V103.885H220.525V101.531H229.787ZM275.162 120.884V123.223H266.167V120.884H275.162ZM266.659 101.531V123.223H263.918V101.531H266.659ZM293.025 101.531V123.223H290.285V101.531H293.025ZM310.396 101.531H313.047L318.721 119.215L324.38 101.531H327.031L319.749 123.223H317.663L310.396 101.531ZM309.533 101.531H311.855L312.258 114.761V123.223H309.533V101.531ZM325.556 101.531H327.879V123.223H325.154V114.761L325.556 101.531ZM347.186 101.531V123.223H344.447V101.531H347.186ZM370.217 101.531V123.223H367.506V101.531H370.217ZM375.92 101.531V103.885H361.817V101.531H375.92ZM402.525 120.884V123.223H393.112V120.884H402.525ZM393.604 101.531V123.223H390.864V101.531H393.604ZM401.259 110.857V113.196H393.112V110.857H401.259ZM402.376 101.531V103.885H393.112V101.531H402.376ZM422.681 123.223H418.987L419.017 120.884H422.681C423.98 120.884 425.038 120.635 425.853 120.139C426.667 119.632 427.267 118.888 427.654 117.905C428.041 116.911 428.235 115.684 428.235 114.224V110.515C428.235 109.362 428.126 108.369 427.908 107.535C427.688 106.701 427.361 106.015 426.925 105.479C426.487 104.943 425.937 104.545 425.272 104.287C424.607 104.019 423.827 103.885 422.933 103.885H418.913V101.531H422.933C424.154 101.531 425.257 101.724 426.24 102.112C427.223 102.489 428.066 103.06 428.771 103.825C429.476 104.58 430.012 105.519 430.379 106.641C430.757 107.763 430.946 109.064 430.946 110.544V114.224C430.946 115.704 430.757 117.005 430.379 118.128C430.012 119.251 429.471 120.188 428.756 120.944C428.041 121.699 427.172 122.27 426.151 122.657C425.137 123.034 423.98 123.223 422.681 123.223ZM420.506 101.531V123.223H417.766V101.531H420.506Z" fill="black"/>
</g>
</svg>
