<svg width="922" height="392" viewBox="0 0 922 392" fill="none" xmlns="http://www.w3.org/2000/svg">
<path d="M17.8 387.444L15.5 289H2V280H39.5V289H23.7V387.444H17.8Z" fill="black"/>
<path d="M74.8086 357.044C74.8086 352.044 74.5753 348.444 74.1086 346.244C73.6419 344.044 72.7086 342.578 71.3086 341.844C69.9753 341.111 67.8086 340.744 64.8086 340.744C61.3419 340.744 58.8086 341.578 57.2086 343.244C55.6753 344.844 54.7086 346.978 54.3086 349.644C53.9086 352.311 53.7086 356.111 53.7086 361.044V387.444H48.1086L46.5 280H53L53.7086 342.744H54.2086C55.0086 340.678 56.3419 338.978 58.2086 337.644C60.0753 336.311 62.9419 335.644 66.8086 335.644C70.6753 335.644 73.5753 336.311 75.5086 337.644C77.4419 338.911 78.7419 340.911 79.4086 343.644C80.0753 346.311 80.4086 350.178 80.4086 355.244V387.444H74.8086V357.044Z" fill="black"/>
<path d="M124.716 363.844H97.5164C97.5164 369.644 97.7831 373.844 98.3164 376.444C98.8497 378.978 99.9831 380.778 101.716 381.844C103.516 382.844 106.416 383.344 110.416 383.344C112.416 383.344 114.616 383.244 117.016 383.044C119.416 382.778 121.516 382.444 123.316 382.044V386.844C121.783 387.244 119.716 387.578 117.116 387.844C114.516 388.111 111.983 388.244 109.516 388.244C104.25 388.244 100.383 387.511 97.9164 386.044C95.5164 384.511 93.9164 381.978 93.1164 378.444C92.3164 374.844 91.9164 369.378 91.9164 362.044C91.9164 354.644 92.2497 349.211 92.9164 345.744C93.5831 342.278 95.1164 339.744 97.5164 338.144C99.9164 336.478 103.816 335.644 109.216 335.644C114.083 335.644 117.583 336.444 119.716 338.044C121.85 339.578 123.216 342.078 123.816 345.544C124.416 348.944 124.716 354.378 124.716 361.844V363.844ZM109.016 340.544C105.483 340.544 102.916 341.011 101.316 341.944C99.7831 342.811 98.7831 344.478 98.3164 346.944C97.8497 349.411 97.5831 353.544 97.5164 359.344H119.216V357.844C119.216 352.644 118.916 348.844 118.316 346.444C117.783 344.044 116.816 342.478 115.416 341.744C114.016 340.944 111.883 340.544 109.016 340.544Z" fill="black"/>
<path d="M169.936 389.642V357.642H143.536V389.642H137.736V280H143.536V352.142H169.936V280H175.736V389.642H169.936Z" fill="black"/>
<path d="M200.115 388.244C196.848 388.244 194.248 387.844 192.315 387.044C190.382 386.178 188.915 384.678 187.915 382.544C186.982 380.411 186.515 377.411 186.515 373.544C186.515 369.678 186.882 366.711 187.615 364.644C188.415 362.511 189.715 360.978 191.515 360.044C193.315 359.111 195.882 358.644 199.215 358.644C201.215 358.644 205.948 358.811 213.415 359.144V355.144C213.415 350.611 213.115 347.378 212.515 345.444C211.915 343.444 210.815 342.144 209.215 341.544C207.615 340.878 204.982 340.544 201.315 340.544C199.648 340.544 197.582 340.678 195.115 340.944C192.648 341.144 190.648 341.411 189.115 341.744V336.944C193.448 336.078 198.048 335.644 202.915 335.644C207.448 335.644 210.815 336.211 213.015 337.344C215.282 338.411 216.848 340.278 217.715 342.944C218.582 345.611 219.015 349.578 219.015 354.844V387.444H214.215L213.815 380.144H213.415C212.415 383.411 210.748 385.578 208.415 386.644C206.082 387.711 203.315 388.244 200.115 388.244ZM201.515 383.344C204.182 383.344 206.348 383.011 208.015 382.344C209.748 381.678 211.015 380.311 211.815 378.244C212.415 376.578 212.815 374.878 213.015 373.144C213.282 371.344 213.415 369.178 213.415 366.644V363.144H200.515C198.182 363.144 196.415 363.411 195.215 363.944C194.082 364.411 193.282 365.344 192.815 366.744C192.348 368.144 192.115 370.311 192.115 373.244C192.115 376.044 192.348 378.178 192.815 379.644C193.348 381.044 194.248 382.011 195.515 382.544C196.848 383.078 198.848 383.344 201.515 383.344Z" fill="black"/>
<path d="M258.891 357.044C258.891 352.044 258.657 348.444 258.191 346.244C257.724 344.044 256.791 342.578 255.391 341.844C254.057 341.111 251.891 340.744 248.891 340.744C245.424 340.744 242.891 341.578 241.291 343.244C239.757 344.844 238.791 346.978 238.391 349.644C237.991 352.311 237.791 356.111 237.791 361.044V387.444H232.191V336.444H236.991L237.391 343.744H237.891C238.691 341.211 240.057 339.244 241.991 337.844C243.924 336.378 246.891 335.644 250.891 335.644C254.757 335.644 257.657 336.311 259.591 337.644C261.524 338.911 262.824 340.911 263.491 343.644C264.157 346.378 264.491 350.278 264.491 355.344V387.444H258.891V357.044Z" fill="black"/>
<path d="M290.998 388.244C286.865 388.244 283.732 387.511 281.598 386.044C279.532 384.578 278.065 382.011 277.198 378.344C276.398 374.678 275.998 369.211 275.998 361.944C275.998 354.678 276.398 349.211 277.198 345.544C277.998 341.878 279.432 339.311 281.498 337.844C283.632 336.378 286.798 335.644 290.998 335.644C294.332 335.644 296.998 336.211 298.998 337.344C301.065 338.411 302.532 340.244 303.398 342.844H303.898V311.422V280H309.498V387.444H304.698L304.298 380.144H303.798C302.865 383.344 301.298 385.511 299.098 386.644C296.898 387.711 294.198 388.244 290.998 388.244ZM292.798 383.144C295.598 383.144 297.798 382.611 299.398 381.544C300.998 380.478 302.098 378.811 302.698 376.544C303.165 374.544 303.465 372.378 303.598 370.044C303.798 367.711 303.898 364.678 303.898 360.944C303.898 355.344 303.565 351.178 302.898 348.444C302.232 345.644 301.098 343.678 299.498 342.544C297.898 341.344 295.565 340.744 292.498 340.744C289.165 340.744 286.765 341.244 285.298 342.244C283.832 343.178 282.832 345.078 282.298 347.944C281.832 350.744 281.598 355.411 281.598 361.944C281.598 368.478 281.832 373.178 282.298 376.044C282.832 378.844 283.832 380.744 285.298 381.744C286.832 382.678 289.332 383.144 292.798 383.144Z" fill="black"/>
<path d="M373.513 357.044C373.513 352.044 373.28 348.444 372.813 346.244C372.413 344.044 371.58 342.578 370.313 341.844C369.113 341.111 367.147 340.744 364.413 340.744C361.08 340.744 358.647 341.511 357.113 343.044C355.647 344.578 354.713 346.678 354.313 349.344C353.98 351.944 353.813 355.844 353.813 361.044V387.444H348.213V357.044C348.213 352.044 347.98 348.444 347.513 346.244C347.113 344.044 346.313 342.578 345.113 341.844C343.913 341.111 341.913 340.744 339.113 340.744C335.847 340.744 333.447 341.578 331.913 343.244C330.38 344.844 329.413 346.978 329.013 349.644C328.68 352.311 328.513 356.111 328.513 361.044V387.444H322.913V336.444H327.713L328.113 343.744H328.613C329.347 341.211 330.647 339.244 332.513 337.844C334.38 336.378 337.18 335.644 340.913 335.644C344.713 335.644 347.513 336.278 349.313 337.544C351.113 338.744 352.347 340.811 353.013 343.744H353.513C355.113 338.344 359.313 335.644 366.113 335.644C369.78 335.644 372.513 336.311 374.313 337.644C376.18 338.911 377.447 340.911 378.113 343.644C378.78 346.378 379.113 350.244 379.113 355.244V387.444H373.513V357.044Z" fill="black"/>
<path d="M402.947 388.244C399.68 388.244 397.08 387.844 395.147 387.044C393.214 386.178 391.747 384.678 390.747 382.544C389.814 380.411 389.347 377.411 389.347 373.544C389.347 369.678 389.714 366.711 390.447 364.644C391.247 362.511 392.547 360.978 394.347 360.044C396.147 359.111 398.714 358.644 402.047 358.644C404.047 358.644 408.78 358.811 416.247 359.144V355.144C416.247 350.611 415.947 347.378 415.347 345.444C414.747 343.444 413.647 342.144 412.047 341.544C410.447 340.878 407.814 340.544 404.147 340.544C402.48 340.544 400.414 340.678 397.947 340.944C395.48 341.144 393.48 341.411 391.947 341.744V336.944C396.28 336.078 400.88 335.644 405.747 335.644C410.28 335.644 413.647 336.211 415.847 337.344C418.114 338.411 419.68 340.278 420.547 342.944C421.414 345.611 421.847 349.578 421.847 354.844V387.444H417.047L416.647 380.144H416.247C415.247 383.411 413.58 385.578 411.247 386.644C408.914 387.711 406.147 388.244 402.947 388.244ZM404.347 383.344C407.014 383.344 409.18 383.011 410.847 382.344C412.58 381.678 413.847 380.311 414.647 378.244C415.247 376.578 415.647 374.878 415.847 373.144C416.114 371.344 416.247 369.178 416.247 366.644V363.144H403.347C401.014 363.144 399.247 363.411 398.047 363.944C396.914 364.411 396.114 365.344 395.647 366.744C395.18 368.144 394.947 370.311 394.947 373.244C394.947 376.044 395.18 378.178 395.647 379.644C396.18 381.044 397.08 382.011 398.347 382.544C399.68 383.078 401.68 383.344 404.347 383.344Z" fill="black"/>
<path d="M448.323 388.244C444.189 388.244 441.056 387.511 438.923 386.044C436.856 384.578 435.389 382.011 434.523 378.344C433.723 374.678 433.323 369.211 433.323 361.944C433.323 354.678 433.723 349.211 434.523 345.544C435.323 341.878 436.756 339.311 438.823 337.844C440.956 336.378 444.123 335.644 448.323 335.644C451.656 335.644 454.323 336.211 456.323 337.344C458.389 338.411 459.856 340.244 460.723 342.844H461.223V280H466.823V387.444H462.023L461.623 380.144H461.123C460.189 383.344 458.623 385.511 456.423 386.644C454.223 387.711 451.523 388.244 448.323 388.244ZM450.123 383.144C452.923 383.144 455.123 382.611 456.723 381.544C458.323 380.478 459.423 378.811 460.023 376.544C460.489 374.544 460.789 372.378 460.923 370.044C461.123 367.711 461.223 364.678 461.223 360.944C461.223 355.344 460.889 351.178 460.223 348.444C459.556 345.644 458.423 343.678 456.823 342.544C455.223 341.344 452.889 340.744 449.823 340.744C446.489 340.744 444.089 341.244 442.623 342.244C441.156 343.178 440.156 345.078 439.623 347.944C439.156 350.744 438.923 355.411 438.923 361.944C438.923 368.478 439.156 373.178 439.623 376.044C440.156 378.844 441.156 380.744 442.623 381.744C444.156 382.678 446.656 383.144 450.123 383.144Z" fill="black"/>
<path d="M511.338 363.844H484.138C484.138 369.644 484.404 373.844 484.938 376.444C485.471 378.978 486.604 380.778 488.337 381.844C490.137 382.844 493.038 383.344 497.038 383.344C499.038 383.344 501.238 383.244 503.638 383.044C506.038 382.778 508.137 382.444 509.938 382.044V386.844C508.404 387.244 506.337 387.578 503.737 387.844C501.137 388.111 498.604 388.244 496.138 388.244C490.871 388.244 487.004 387.511 484.538 386.044C482.138 384.511 480.537 381.978 479.737 378.444C478.937 374.844 478.538 369.378 478.538 362.044C478.538 354.644 478.871 349.211 479.538 345.744C480.204 342.278 481.738 339.744 484.138 338.144C486.538 336.478 490.437 335.644 495.837 335.644C500.704 335.644 504.204 336.444 506.337 338.044C508.471 339.578 509.837 342.078 510.438 345.544C511.038 348.944 511.338 354.378 511.338 361.844V363.844ZM495.638 340.544C492.104 340.544 489.538 341.011 487.938 341.944C486.404 342.811 485.404 344.478 484.938 346.944C484.471 349.411 484.204 353.544 484.138 359.344H505.837V357.844C505.837 352.644 505.538 348.844 504.938 346.444C504.404 344.044 503.438 342.478 502.038 341.744C500.638 340.944 498.504 340.544 495.638 340.544Z" fill="black"/>
<path d="M561.209 280V357.744C561.209 366.611 560.809 373.078 560.009 377.144C559.209 381.144 557.509 384.011 554.909 385.744C552.309 387.411 548.109 388.244 542.309 388.244C536.442 388.244 532.209 387.411 529.609 385.744C527.009 384.011 525.309 381.144 524.509 377.144C523.709 373.078 523.309 366.611 523.309 357.744V318.872V280H529.109V361.044C529.109 367.644 529.342 372.378 529.809 375.244C530.342 378.044 531.509 380.044 533.309 381.244C535.109 382.378 538.109 382.944 542.309 382.944C546.442 382.944 549.375 382.378 551.109 381.244C552.909 380.044 554.042 378.044 554.509 375.244C555.042 372.378 555.309 367.644 555.309 361.044V280H561.209Z" fill="black"/>
<path d="M601.469 357.044C601.469 352.044 601.235 348.444 600.769 346.244C600.302 344.044 599.369 342.578 597.969 341.844C596.635 341.111 594.469 340.744 591.469 340.744C588.002 340.744 585.469 341.578 583.869 343.244C582.335 344.844 581.369 346.978 580.969 349.644C580.569 352.311 580.369 356.111 580.369 361.044V387.444H574.769V336.444H579.569L579.969 343.744H580.469C581.269 341.211 582.635 339.244 584.569 337.844C586.502 336.378 589.469 335.644 593.469 335.644C597.335 335.644 600.235 336.311 602.169 337.644C604.102 338.911 605.402 340.911 606.069 343.644C606.735 346.378 607.069 350.278 607.069 355.344V387.444H601.469V357.044Z" fill="black"/>
<path d="M620.077 320.644V313.144H626.077V320.644H620.077ZM620.277 387.444V336.444H625.877V387.444H620.277Z" fill="black"/>
<path d="M649.52 387.444L634.72 336.444H640.62L652.52 379.544H653.12L664.92 336.444H670.72L655.92 387.444H649.52Z" fill="black"/>
<path d="M709.677 363.844H682.477C682.477 369.644 682.744 373.844 683.277 376.444C683.811 378.978 684.944 380.778 686.677 381.844C688.477 382.844 691.377 383.344 695.377 383.344C697.377 383.344 699.577 383.244 701.977 383.044C704.377 382.778 706.477 382.444 708.277 382.044V386.844C706.744 387.244 704.677 387.578 702.077 387.844C699.477 388.111 696.944 388.244 694.477 388.244C689.211 388.244 685.344 387.511 682.877 386.044C680.477 384.511 678.877 381.978 678.077 378.444C677.277 374.844 676.877 369.378 676.877 362.044C676.877 354.644 677.211 349.211 677.877 345.744C678.544 342.278 680.077 339.744 682.477 338.144C684.877 336.478 688.777 335.644 694.177 335.644C699.044 335.644 702.544 336.444 704.677 338.044C706.811 339.578 708.177 342.078 708.777 345.544C709.377 348.944 709.677 354.378 709.677 361.844V363.844ZM693.977 340.544C690.444 340.544 687.877 341.011 686.277 341.944C684.744 342.811 683.744 344.478 683.277 346.944C682.811 349.411 682.544 353.544 682.477 359.344H704.177V357.844C704.177 352.644 703.877 348.844 703.277 346.444C702.744 344.044 701.777 342.478 700.377 341.744C698.977 340.944 696.844 340.544 693.977 340.544Z" fill="black"/>
<path d="M721.448 336.444H726.248L726.648 346.244H727.148C728.015 342.178 729.548 339.411 731.748 337.944C734.015 336.411 736.948 335.644 740.548 335.644V341.344C737.015 341.344 734.248 342.144 732.248 343.744C730.315 345.278 728.948 347.578 728.148 350.644C727.415 353.644 727.048 357.611 727.048 362.544V387.444H721.448V336.444Z" fill="black"/>
<path d="M761.183 388.244C758.916 388.244 756.516 388.111 753.983 387.844C751.449 387.644 749.383 387.378 747.783 387.044V382.244C751.783 382.978 756.283 383.344 761.283 383.344C765.083 383.344 767.583 382.611 768.783 381.144C770.05 379.611 770.683 377.178 770.683 373.844C770.683 371.178 770.516 369.244 770.183 368.044C769.916 366.844 769.416 366.044 768.683 365.644C768.016 365.244 766.883 364.944 765.283 364.744L754.983 363.344C751.783 362.878 749.583 361.678 748.383 359.744C747.183 357.811 746.583 354.678 746.583 350.344C746.583 346.344 747.183 343.278 748.383 341.144C749.649 339.011 751.383 337.578 753.583 336.844C755.783 336.044 758.649 335.644 762.183 335.644C764.116 335.644 766.216 335.778 768.483 336.044C770.749 336.311 772.616 336.611 774.083 336.944V341.744C770.549 340.944 766.416 340.544 761.683 340.544C758.349 340.544 755.916 341.178 754.383 342.444C752.849 343.711 752.083 346.178 752.083 349.844C752.083 352.244 752.216 354.011 752.483 355.144C752.816 356.278 753.316 357.044 753.983 357.444C754.716 357.844 755.849 358.144 757.383 358.344L767.483 359.744C769.749 360.078 771.483 360.644 772.683 361.444C773.883 362.244 774.75 363.578 775.283 365.444C775.883 367.311 776.183 370.044 776.183 373.644C776.183 379.111 775.016 382.911 772.683 385.044C770.349 387.178 766.516 388.244 761.183 388.244Z" fill="black"/>
<path d="M818.076 363.844H790.876C790.876 369.644 791.142 373.844 791.676 376.444C792.209 378.978 793.342 380.778 795.076 381.844C796.876 382.844 799.776 383.344 803.776 383.344C805.776 383.344 807.976 383.244 810.376 383.044C812.776 382.778 814.876 382.444 816.676 382.044V386.844C815.142 387.244 813.076 387.578 810.476 387.844C807.876 388.111 805.342 388.244 802.876 388.244C797.609 388.244 793.742 387.511 791.276 386.044C788.876 384.511 787.276 381.978 786.476 378.444C785.676 374.844 785.276 369.378 785.276 362.044C785.276 354.644 785.609 349.211 786.276 345.744C786.942 342.278 788.476 339.744 790.876 338.144C793.276 336.478 797.176 335.644 802.576 335.644C807.442 335.644 810.942 336.444 813.076 338.044C815.209 339.578 816.576 342.078 817.176 345.544C817.776 348.944 818.076 354.378 818.076 361.844V363.844ZM802.376 340.544C798.842 340.544 796.276 341.011 794.676 341.944C793.142 342.811 792.142 344.478 791.676 346.944C791.209 349.411 790.942 353.544 790.876 359.344H812.576V357.844C812.576 352.644 812.276 348.844 811.676 346.444C811.142 344.044 810.176 342.478 808.776 341.744C807.376 340.944 805.242 340.544 802.376 340.544Z" fill="black"/>
<path d="M829.847 387.444V280H834L835.447 387.444H829.847Z" fill="black"/>
<path d="M851.99 387.444V341.344H844.29V336.444H851.99V280H857.59V336.444H866.49V341.344H857.59V387.444H851.99Z" fill="black"/>
<path d="M888.166 388.244C884.033 388.244 880.9 387.511 878.766 386.044C876.7 384.578 875.233 382.011 874.366 378.344C873.566 374.678 873.166 369.211 873.166 361.944C873.166 354.678 873.566 349.211 874.366 345.544C875.166 341.878 876.6 339.311 878.666 337.844C880.8 336.378 883.966 335.644 888.166 335.644C891.5 335.644 894.166 336.211 896.166 337.344C898.233 338.411 899.7 340.244 900.566 342.844H901.066L899.866 280H904L906.666 387.444H901.866L901.466 380.144H900.966C900.033 383.344 898.466 385.511 896.266 386.644C894.066 387.711 891.366 388.244 888.166 388.244ZM889.966 383.144C892.766 383.144 894.966 382.611 896.566 381.544C898.166 380.478 899.266 378.811 899.866 376.544C900.333 374.544 900.633 372.378 900.766 370.044C900.966 367.711 901.066 364.678 901.066 360.944C901.066 355.344 900.733 351.178 900.066 348.444C899.4 345.644 898.266 343.678 896.666 342.544C895.066 341.344 892.733 340.744 889.666 340.744C886.333 340.744 883.933 341.244 882.466 342.244C881 343.178 880 345.078 879.466 347.944C879 350.744 878.766 355.411 878.766 361.944C878.766 368.478 879 373.178 879.466 376.044C880 378.844 881 380.744 882.466 381.744C884 382.678 886.5 383.144 889.966 383.144Z" fill="black"/>
<path d="M2 289H15.5L17.8 387.444H23.7V289H39.5V280H2V289ZM2 289V102L195.115 272L259.474 68M899.866 280L901.066 342.844H900.566C899.7 340.244 898.233 338.411 896.166 337.344C894.166 336.211 891.5 335.644 888.166 335.644C883.966 335.644 880.8 336.378 878.666 337.844C876.6 339.311 875.166 341.878 874.366 345.544C873.566 349.211 873.166 354.678 873.166 361.944C873.166 369.211 873.566 374.678 874.366 378.344C875.233 382.011 876.7 384.578 878.766 386.044C880.9 387.511 884.033 388.244 888.166 388.244C891.366 388.244 894.066 387.711 896.266 386.644C898.466 385.511 900.033 383.344 900.966 380.144H901.466L901.866 387.444H906.666L904 280H899.866ZM899.866 280H919.241V99.5089M456.481 1L375.537 272L260.294 66.9002M919.764 102L763.37 289M456.493 1.93779L546.96 272L668.994 68M764.095 290.669L666.962 68M74.8086 357.044C74.8086 352.044 74.5753 348.444 74.1086 346.244C73.6419 344.044 72.7086 342.578 71.3086 341.844C69.9753 341.111 67.8086 340.744 64.8086 340.744C61.3419 340.744 58.8086 341.578 57.2086 343.244C55.6753 344.844 54.7086 346.978 54.3086 349.644C53.9086 352.311 53.7086 356.111 53.7086 361.044V387.444H48.1086L46.5 280H53L53.7086 342.744H54.2086C55.0086 340.678 56.3419 338.978 58.2086 337.644C60.0753 336.311 62.9419 335.644 66.8086 335.644C70.6753 335.644 73.5753 336.311 75.5086 337.644C77.4419 338.911 78.7419 340.911 79.4086 343.644C80.0753 346.311 80.4086 350.178 80.4086 355.244V387.444H74.8086V357.044ZM124.716 363.844H97.5164C97.5164 369.644 97.7831 373.844 98.3164 376.444C98.8497 378.978 99.9831 380.778 101.716 381.844C103.516 382.844 106.416 383.344 110.416 383.344C112.416 383.344 114.616 383.244 117.016 383.044C119.416 382.778 121.516 382.444 123.316 382.044V386.844C121.783 387.244 119.716 387.578 117.116 387.844C114.516 388.111 111.983 388.244 109.516 388.244C104.25 388.244 100.383 387.511 97.9164 386.044C95.5164 384.511 93.9164 381.978 93.1164 378.444C92.3164 374.844 91.9164 369.378 91.9164 362.044C91.9164 354.644 92.2497 349.211 92.9164 345.744C93.5831 342.278 95.1164 339.744 97.5164 338.144C99.9164 336.478 103.816 335.644 109.216 335.644C114.083 335.644 117.583 336.444 119.716 338.044C121.85 339.578 123.216 342.078 123.816 345.544C124.416 348.944 124.716 354.378 124.716 361.844V363.844ZM109.016 340.544C105.483 340.544 102.916 341.011 101.316 341.944C99.7831 342.811 98.7831 344.478 98.3164 346.944C97.8497 349.411 97.5831 353.544 97.5164 359.344H119.216V357.844C119.216 352.644 118.916 348.844 118.316 346.444C117.783 344.044 116.816 342.478 115.416 341.744C114.016 340.944 111.883 340.544 109.016 340.544ZM169.936 389.642V357.642H143.536V389.642H137.736V280H143.536V352.142H169.936V280H175.736V389.642H169.936ZM200.115 388.244C196.848 388.244 194.248 387.844 192.315 387.044C190.382 386.178 188.915 384.678 187.915 382.544C186.982 380.411 186.515 377.411 186.515 373.544C186.515 369.678 186.882 366.711 187.615 364.644C188.415 362.511 189.715 360.978 191.515 360.044C193.315 359.111 195.882 358.644 199.215 358.644C201.215 358.644 205.948 358.811 213.415 359.144V355.144C213.415 350.611 213.115 347.378 212.515 345.444C211.915 343.444 210.815 342.144 209.215 341.544C207.615 340.878 204.982 340.544 201.315 340.544C199.648 340.544 197.582 340.678 195.115 340.944C192.648 341.144 190.648 341.411 189.115 341.744V336.944C193.448 336.078 198.048 335.644 202.915 335.644C207.448 335.644 210.815 336.211 213.015 337.344C215.282 338.411 216.848 340.278 217.715 342.944C218.582 345.611 219.015 349.578 219.015 354.844V387.444H214.215L213.815 380.144H213.415C212.415 383.411 210.748 385.578 208.415 386.644C206.082 387.711 203.315 388.244 200.115 388.244ZM201.515 383.344C204.182 383.344 206.348 383.011 208.015 382.344C209.748 381.678 211.015 380.311 211.815 378.244C212.415 376.578 212.815 374.878 213.015 373.144C213.282 371.344 213.415 369.178 213.415 366.644V363.144H200.515C198.182 363.144 196.415 363.411 195.215 363.944C194.082 364.411 193.282 365.344 192.815 366.744C192.348 368.144 192.115 370.311 192.115 373.244C192.115 376.044 192.348 378.178 192.815 379.644C193.348 381.044 194.248 382.011 195.515 382.544C196.848 383.078 198.848 383.344 201.515 383.344ZM258.891 357.044C258.891 352.044 258.657 348.444 258.191 346.244C257.724 344.044 256.791 342.578 255.391 341.844C254.057 341.111 251.891 340.744 248.891 340.744C245.424 340.744 242.891 341.578 241.291 343.244C239.757 344.844 238.791 346.978 238.391 349.644C237.991 352.311 237.791 356.111 237.791 361.044V387.444H232.191V336.444H236.991L237.391 343.744H237.891C238.691 341.211 240.057 339.244 241.991 337.844C243.924 336.378 246.891 335.644 250.891 335.644C254.757 335.644 257.657 336.311 259.591 337.644C261.524 338.911 262.824 340.911 263.491 343.644C264.157 346.378 264.491 350.278 264.491 355.344V387.444H258.891V357.044ZM290.998 388.244C286.865 388.244 283.732 387.511 281.598 386.044C279.532 384.578 278.065 382.011 277.198 378.344C276.398 374.678 275.998 369.211 275.998 361.944C275.998 354.678 276.398 349.211 277.198 345.544C277.998 341.878 279.432 339.311 281.498 337.844C283.632 336.378 286.798 335.644 290.998 335.644C294.332 335.644 296.998 336.211 298.998 337.344C301.065 338.411 302.532 340.244 303.398 342.844H303.898V311.422V280H309.498V387.444H304.698L304.298 380.144H303.798C302.865 383.344 301.298 385.511 299.098 386.644C296.898 387.711 294.198 388.244 290.998 388.244ZM292.798 383.144C295.598 383.144 297.798 382.611 299.398 381.544C300.998 380.478 302.098 378.811 302.698 376.544C303.165 374.544 303.465 372.378 303.598 370.044C303.798 367.711 303.898 364.678 303.898 360.944C303.898 355.344 303.565 351.178 302.898 348.444C302.232 345.644 301.098 343.678 299.498 342.544C297.898 341.344 295.565 340.744 292.498 340.744C289.165 340.744 286.765 341.244 285.298 342.244C283.832 343.178 282.832 345.078 282.298 347.944C281.832 350.744 281.598 355.411 281.598 361.944C281.598 368.478 281.832 373.178 282.298 376.044C282.832 378.844 283.832 380.744 285.298 381.744C286.832 382.678 289.332 383.144 292.798 383.144ZM373.513 357.044C373.513 352.044 373.28 348.444 372.813 346.244C372.413 344.044 371.58 342.578 370.313 341.844C369.113 341.111 367.147 340.744 364.413 340.744C361.08 340.744 358.647 341.511 357.113 343.044C355.647 344.578 354.713 346.678 354.313 349.344C353.98 351.944 353.813 355.844 353.813 361.044V387.444H348.213V357.044C348.213 352.044 347.98 348.444 347.513 346.244C347.113 344.044 346.313 342.578 345.113 341.844C343.913 341.111 341.913 340.744 339.113 340.744C335.847 340.744 333.447 341.578 331.913 343.244C330.38 344.844 329.413 346.978 329.013 349.644C328.68 352.311 328.513 356.111 328.513 361.044V387.444H322.913V336.444H327.713L328.113 343.744H328.613C329.347 341.211 330.647 339.244 332.513 337.844C334.38 336.378 337.18 335.644 340.913 335.644C344.713 335.644 347.513 336.278 349.313 337.544C351.113 338.744 352.347 340.811 353.013 343.744H353.513C355.113 338.344 359.313 335.644 366.113 335.644C369.78 335.644 372.513 336.311 374.313 337.644C376.18 338.911 377.447 340.911 378.113 343.644C378.78 346.378 379.113 350.244 379.113 355.244V387.444H373.513V357.044ZM402.947 388.244C399.68 388.244 397.08 387.844 395.147 387.044C393.214 386.178 391.747 384.678 390.747 382.544C389.814 380.411 389.347 377.411 389.347 373.544C389.347 369.678 389.714 366.711 390.447 364.644C391.247 362.511 392.547 360.978 394.347 360.044C396.147 359.111 398.714 358.644 402.047 358.644C404.047 358.644 408.78 358.811 416.247 359.144V355.144C416.247 350.611 415.947 347.378 415.347 345.444C414.747 343.444 413.647 342.144 412.047 341.544C410.447 340.878 407.814 340.544 404.147 340.544C402.48 340.544 400.414 340.678 397.947 340.944C395.48 341.144 393.48 341.411 391.947 341.744V336.944C396.28 336.078 400.88 335.644 405.747 335.644C410.28 335.644 413.647 336.211 415.847 337.344C418.114 338.411 419.68 340.278 420.547 342.944C421.414 345.611 421.847 349.578 421.847 354.844V387.444H417.047L416.647 380.144H416.247C415.247 383.411 413.58 385.578 411.247 386.644C408.914 387.711 406.147 388.244 402.947 388.244ZM404.347 383.344C407.014 383.344 409.18 383.011 410.847 382.344C412.58 381.678 413.847 380.311 414.647 378.244C415.247 376.578 415.647 374.878 415.847 373.144C416.114 371.344 416.247 369.178 416.247 366.644V363.144H403.347C401.014 363.144 399.247 363.411 398.047 363.944C396.914 364.411 396.114 365.344 395.647 366.744C395.18 368.144 394.947 370.311 394.947 373.244C394.947 376.044 395.18 378.178 395.647 379.644C396.18 381.044 397.08 382.011 398.347 382.544C399.68 383.078 401.68 383.344 404.347 383.344ZM448.323 388.244C444.189 388.244 441.056 387.511 438.923 386.044C436.856 384.578 435.389 382.011 434.523 378.344C433.723 374.678 433.323 369.211 433.323 361.944C433.323 354.678 433.723 349.211 434.523 345.544C435.323 341.878 436.756 339.311 438.823 337.844C440.956 336.378 444.123 335.644 448.323 335.644C451.656 335.644 454.323 336.211 456.323 337.344C458.389 338.411 459.856 340.244 460.723 342.844H461.223V280H466.823V387.444H462.023L461.623 380.144H461.123C460.189 383.344 458.623 385.511 456.423 386.644C454.223 387.711 451.523 388.244 448.323 388.244ZM450.123 383.144C452.923 383.144 455.123 382.611 456.723 381.544C458.323 380.478 459.423 378.811 460.023 376.544C460.489 374.544 460.789 372.378 460.923 370.044C461.123 367.711 461.223 364.678 461.223 360.944C461.223 355.344 460.889 351.178 460.223 348.444C459.556 345.644 458.423 343.678 456.823 342.544C455.223 341.344 452.889 340.744 449.823 340.744C446.489 340.744 444.089 341.244 442.623 342.244C441.156 343.178 440.156 345.078 439.623 347.944C439.156 350.744 438.923 355.411 438.923 361.944C438.923 368.478 439.156 373.178 439.623 376.044C440.156 378.844 441.156 380.744 442.623 381.744C444.156 382.678 446.656 383.144 450.123 383.144ZM511.338 363.844H484.138C484.138 369.644 484.404 373.844 484.938 376.444C485.471 378.978 486.604 380.778 488.337 381.844C490.137 382.844 493.038 383.344 497.038 383.344C499.038 383.344 501.238 383.244 503.638 383.044C506.038 382.778 508.137 382.444 509.938 382.044V386.844C508.404 387.244 506.337 387.578 503.737 387.844C501.137 388.111 498.604 388.244 496.138 388.244C490.871 388.244 487.004 387.511 484.538 386.044C482.138 384.511 480.537 381.978 479.737 378.444C478.937 374.844 478.538 369.378 478.538 362.044C478.538 354.644 478.871 349.211 479.538 345.744C480.204 342.278 481.738 339.744 484.138 338.144C486.538 336.478 490.437 335.644 495.837 335.644C500.704 335.644 504.204 336.444 506.337 338.044C508.471 339.578 509.837 342.078 510.438 345.544C511.038 348.944 511.338 354.378 511.338 361.844V363.844ZM495.638 340.544C492.104 340.544 489.538 341.011 487.938 341.944C486.404 342.811 485.404 344.478 484.938 346.944C484.471 349.411 484.204 353.544 484.138 359.344H505.837V357.844C505.837 352.644 505.538 348.844 504.938 346.444C504.404 344.044 503.438 342.478 502.038 341.744C500.638 340.944 498.504 340.544 495.638 340.544ZM561.209 280V357.744C561.209 366.611 560.809 373.078 560.009 377.144C559.209 381.144 557.509 384.011 554.909 385.744C552.309 387.411 548.109 388.244 542.309 388.244C536.442 388.244 532.209 387.411 529.609 385.744C527.009 384.011 525.309 381.144 524.509 377.144C523.709 373.078 523.309 366.611 523.309 357.744V318.872V280H529.109V361.044C529.109 367.644 529.342 372.378 529.809 375.244C530.342 378.044 531.509 380.044 533.309 381.244C535.109 382.378 538.109 382.944 542.309 382.944C546.442 382.944 549.375 382.378 551.109 381.244C552.909 380.044 554.042 378.044 554.509 375.244C555.042 372.378 555.309 367.644 555.309 361.044V280H561.209ZM601.469 357.044C601.469 352.044 601.235 348.444 600.769 346.244C600.302 344.044 599.369 342.578 597.969 341.844C596.635 341.111 594.469 340.744 591.469 340.744C588.002 340.744 585.469 341.578 583.869 343.244C582.335 344.844 581.369 346.978 580.969 349.644C580.569 352.311 580.369 356.111 580.369 361.044V387.444H574.769V336.444H579.569L579.969 343.744H580.469C581.269 341.211 582.635 339.244 584.569 337.844C586.502 336.378 589.469 335.644 593.469 335.644C597.335 335.644 600.235 336.311 602.169 337.644C604.102 338.911 605.402 340.911 606.069 343.644C606.735 346.378 607.069 350.278 607.069 355.344V387.444H601.469V357.044ZM620.077 320.644V313.144H626.077V320.644H620.077ZM620.277 387.444V336.444H625.877V387.444H620.277ZM649.52 387.444L634.72 336.444H640.62L652.52 379.544H653.12L664.92 336.444H670.72L655.92 387.444H649.52ZM709.677 363.844H682.477C682.477 369.644 682.744 373.844 683.277 376.444C683.811 378.978 684.944 380.778 686.677 381.844C688.477 382.844 691.377 383.344 695.377 383.344C697.377 383.344 699.577 383.244 701.977 383.044C704.377 382.778 706.477 382.444 708.277 382.044V386.844C706.744 387.244 704.677 387.578 702.077 387.844C699.477 388.111 696.944 388.244 694.477 388.244C689.211 388.244 685.344 387.511 682.877 386.044C680.477 384.511 678.877 381.978 678.077 378.444C677.277 374.844 676.877 369.378 676.877 362.044C676.877 354.644 677.211 349.211 677.877 345.744C678.544 342.278 680.077 339.744 682.477 338.144C684.877 336.478 688.777 335.644 694.177 335.644C699.044 335.644 702.544 336.444 704.677 338.044C706.811 339.578 708.177 342.078 708.777 345.544C709.377 348.944 709.677 354.378 709.677 361.844V363.844ZM693.977 340.544C690.444 340.544 687.877 341.011 686.277 341.944C684.744 342.811 683.744 344.478 683.277 346.944C682.811 349.411 682.544 353.544 682.477 359.344H704.177V357.844C704.177 352.644 703.877 348.844 703.277 346.444C702.744 344.044 701.777 342.478 700.377 341.744C698.977 340.944 696.844 340.544 693.977 340.544ZM721.448 336.444H726.248L726.648 346.244H727.148C728.015 342.178 729.548 339.411 731.748 337.944C734.015 336.411 736.948 335.644 740.548 335.644V341.344C737.015 341.344 734.248 342.144 732.248 343.744C730.315 345.278 728.948 347.578 728.148 350.644C727.415 353.644 727.048 357.611 727.048 362.544V387.444H721.448V336.444ZM761.183 388.244C758.916 388.244 756.516 388.111 753.983 387.844C751.449 387.644 749.383 387.378 747.783 387.044V382.244C751.783 382.978 756.283 383.344 761.283 383.344C765.083 383.344 767.583 382.611 768.783 381.144C770.05 379.611 770.683 377.178 770.683 373.844C770.683 371.178 770.516 369.244 770.183 368.044C769.916 366.844 769.416 366.044 768.683 365.644C768.016 365.244 766.883 364.944 765.283 364.744L754.983 363.344C751.783 362.878 749.583 361.678 748.383 359.744C747.183 357.811 746.583 354.678 746.583 350.344C746.583 346.344 747.183 343.278 748.383 341.144C749.649 339.011 751.383 337.578 753.583 336.844C755.783 336.044 758.649 335.644 762.183 335.644C764.116 335.644 766.216 335.778 768.483 336.044C770.749 336.311 772.616 336.611 774.083 336.944V341.744C770.549 340.944 766.416 340.544 761.683 340.544C758.349 340.544 755.916 341.178 754.383 342.444C752.849 343.711 752.083 346.178 752.083 349.844C752.083 352.244 752.216 354.011 752.483 355.144C752.816 356.278 753.316 357.044 753.983 357.444C754.716 357.844 755.849 358.144 757.383 358.344L767.483 359.744C769.749 360.078 771.483 360.644 772.683 361.444C773.883 362.244 774.75 363.578 775.283 365.444C775.883 367.311 776.183 370.044 776.183 373.644C776.183 379.111 775.016 382.911 772.683 385.044C770.349 387.178 766.516 388.244 761.183 388.244ZM818.076 363.844H790.876C790.876 369.644 791.142 373.844 791.676 376.444C792.209 378.978 793.342 380.778 795.076 381.844C796.876 382.844 799.776 383.344 803.776 383.344C805.776 383.344 807.976 383.244 810.376 383.044C812.776 382.778 814.876 382.444 816.676 382.044V386.844C815.142 387.244 813.076 387.578 810.476 387.844C807.876 388.111 805.342 388.244 802.876 388.244C797.609 388.244 793.742 387.511 791.276 386.044C788.876 384.511 787.276 381.978 786.476 378.444C785.676 374.844 785.276 369.378 785.276 362.044C785.276 354.644 785.609 349.211 786.276 345.744C786.942 342.278 788.476 339.744 790.876 338.144C793.276 336.478 797.176 335.644 802.576 335.644C807.442 335.644 810.942 336.444 813.076 338.044C815.209 339.578 816.576 342.078 817.176 345.544C817.776 348.944 818.076 354.378 818.076 361.844V363.844ZM802.376 340.544C798.842 340.544 796.276 341.011 794.676 341.944C793.142 342.811 792.142 344.478 791.676 346.944C791.209 349.411 790.942 353.544 790.876 359.344H812.576V357.844C812.576 352.644 812.276 348.844 811.676 346.444C811.142 344.044 810.176 342.478 808.776 341.744C807.376 340.944 805.242 340.544 802.376 340.544ZM829.847 387.444V280H834L835.447 387.444H829.847ZM851.99 387.444V341.344H844.29V336.444H851.99V280H857.59V336.444H866.49V341.344H857.59V387.444H851.99ZM889.966 383.144C892.766 383.144 894.966 382.611 896.566 381.544C898.166 380.478 899.266 378.811 899.866 376.544C900.333 374.544 900.633 372.378 900.766 370.044C900.966 367.711 901.066 364.678 901.066 360.944C901.066 355.344 900.733 351.178 900.066 348.444C899.4 345.644 898.266 343.678 896.666 342.544C895.066 341.344 892.733 340.744 889.666 340.744C886.333 340.744 883.933 341.244 882.466 342.244C881 343.178 880 345.078 879.466 347.944C879 350.744 878.766 355.411 878.766 361.944C878.766 368.478 879 373.178 879.466 376.044C880 378.844 881 380.744 882.466 381.744C884 382.678 886.5 383.144 889.966 383.144Z" stroke="black" stroke-width="4"/>
</svg>
