<svg width="64" height="64" viewBox="0 0 64 64" fill="none" xmlns="http://www.w3.org/2000/svg">
<path d="M49.6104 64C41.03 64 28.848 57.5796 17.6194 46.5099C2.36547 31.2338 -4.09628 14.1865 2.68326 6.65918C3.00105 6.32709 3.42477 5.995 3.8485 5.77361L12.4288 0.681564C14.6534 -0.646795 17.4076 0.0173845 18.8906 2.23132L25.1405 11.5298C25.882 12.6368 26.1998 13.9652 25.882 15.2935C25.6701 16.5112 24.9286 17.6181 23.8693 18.393L20.1618 20.939C23.0219 25.2562 30.7548 35.9938 43.0427 43.6318C43.1486 43.7425 43.2546 43.6318 43.2546 43.6318L45.9028 39.8681C47.3858 37.7649 50.246 37.2114 52.4705 38.6505L61.7924 44.8495C64.0169 46.2885 64.6525 49.2774 63.2754 51.602L58.1907 60.1256C57.8729 60.5684 57.5551 61.0112 57.2374 61.3433C55.3306 63.1144 52.6824 64 49.6104 64ZM14.8652 4.99873L6.17896 10.0908C2.15361 14.6293 7.13233 29.1306 21.0092 42.857C35.0979 56.8047 49.6104 61.7861 54.2713 57.5796L59.356 49.056L50.0341 42.857C49.9282 42.857 49.8222 42.857 49.8222 42.857L47.174 46.6206C45.691 48.7239 42.8308 49.2774 40.7122 47.949C27.4709 39.6468 19.2084 28.1343 16.2423 23.5958C15.5008 22.4888 15.289 21.1604 15.5008 19.9428C15.7127 18.6144 16.4542 17.5074 17.5135 16.8433L21.2211 14.2972L15.0771 5.10943C14.9712 5.10943 14.8652 4.99873 14.8652 4.99873Z" fill="black"/>
</svg>
