<svg width="64" height="64" viewBox="0 0 64 64" fill="none" xmlns="http://www.w3.org/2000/svg">
<path d="M56.4001 19.6H54.0001L47.5001 3.2C47.0001 2 45.7001 1.5 44.6001 1.9C43.4001 2.4 42.9001 3.7 43.3001 4.8L49.1001 19.6H14.9L20.7001 4.9C21.2001 3.7 20.6001 2.4 19.4001 2C18.3 1.5 17.0001 2 16.5001 3.2L10 19.6H7.60005C5.80005 19.6 4.30005 21.1 4.30005 22.9V31C4.30005 32.7 5.50005 34 7.20005 34.2L9.70005 56C10.1 59.6 13.1001 62.3 16.7001 62.3H47.3001C50.9001 62.3 53.9001 59.6 54.3001 56L56.8001 34.2C58.4001 34 59.7001 32.6 59.7001 31V22.8C59.7001 21 58.2001 19.6 56.4001 19.6ZM8.80005 24.1H55.2001V29.8H8.80005V24.1ZM47.3001 57.8H16.7001C15.4001 57.8 14.3001 56.8 14.1001 55.5L11.7 34.3H52.3001L49.9001 55.5C49.7001 56.8 48.6001 57.8 47.3001 57.8Z" fill="black"/>
<path d="M21.8 38.8C20.6 38.8 19.5 39.8 19.5 41.1V48.6C19.5 49.8 20.5 50.9 21.8 50.9C23.1 50.9 24.1 49.9 24.1 48.6V41C24.1 39.8 23.1 38.8 21.8 38.8Z" fill="black"/>
<path d="M42.2 38.8C41 38.8 39.9 39.8 39.9 41.1V48.6C39.9 49.8 40.9 50.9 42.2 50.9C43.5 50.9 44.5 49.9 44.5 48.6V41C44.4 39.8 43.4 38.8 42.2 38.8Z" fill="black"/>
</svg>
